<svg xmlns="http://www.w3.org/2000/svg" xmlns:xlink="http://www.w3.org/1999/xlink" viewBox="0 0 307.39 317.44"><defs><linearGradient id="b6e5079d-69a8-4d32-aa1a-21eab27cc84c" x1="210.83" y1="213.64" x2="210.83" y2="185.3" gradientTransform="translate(13.01 -12.9) rotate(3.62)" gradientUnits="userSpaceOnUse"><stop offset="0.03" stop-color="#b4b4b4"/><stop offset="0.16" stop-color="#676767"/><stop offset="0.18" stop-color="#6f6f6f"/><stop offset="0.23" stop-color="#848484"/><stop offset="0.28" stop-color="#a6a6a6"/><stop offset="0.3" stop-color="#b4b4b4"/><stop offset="0.33" stop-color="#b7b7b7"/><stop offset="0.36" stop-color="#c2c2c2"/><stop offset="0.39" stop-color="#d3d3d3"/><stop offset="0.41" stop-color="#ebebeb"/><stop offset="0.42" stop-color="#f3f3f3"/><stop offset="0.45" stop-color="#dedede"/><stop offset="0.53" stop-color="#acacac"/><stop offset="0.6" stop-color="#8d8d8d"/><stop offset="0.63" stop-color="#818181"/><stop offset="0.8" stop-color="#4e4e4e"/><stop offset="0.82" stop-color="#535353"/><stop offset="0.85" stop-color="#606060"/><stop offset="0.88" stop-color="#767676"/><stop offset="0.91" stop-color="#959595"/><stop offset="0.94" stop-color="#bdbdbc"/><stop offset="0.96" stop-color="#e6e6e5"/></linearGradient><linearGradient id="a3925cf9-9b5a-4fd1-8a41-1c89d1b437fb" x1="197.66" y1="199.47" x2="224" y2="199.47" gradientTransform="translate(13 -12.9) rotate(3.62)" xlink:href="#b6e5079d-69a8-4d32-aa1a-21eab27cc84c"/><linearGradient id="b34ddb91-8b6b-4f4b-9a12-8181f957b303" x1="83.89" y1="126.35" x2="112.05" y2="105.34" gradientUnits="userSpaceOnUse"><stop offset="0.23" stop-color="#069547"/><stop offset="0.31" stop-color="#129946"/><stop offset="0.43" stop-color="#33a442"/><stop offset="0.61" stop-color="#67b63c"/><stop offset="0.81" stop-color="#afcf33"/><stop offset="1" stop-color="#f7e82b"/></linearGradient><linearGradient id="fcfa8100-2241-4884-b232-d91301d36086" x1="210.83" y1="182.9" x2="210.83" y2="202.68" gradientUnits="userSpaceOnUse"><stop offset="0.23" stop-color="#fff" stop-opacity="0.96"/><stop offset="0.83" stop-color="#fff" stop-opacity="0"/></linearGradient><linearGradient id="b97fb1a5-dad7-4e79-8874-254396941288" x1="224.36" y1="140.36" x2="224.36" y2="112.02" gradientTransform="translate(8.41 -13.9) rotate(3.62)" xlink:href="#b6e5079d-69a8-4d32-aa1a-21eab27cc84c"/><linearGradient id="fdebdbe4-180e-4a78-9218-2a500fd36311" x1="211.19" y1="126.19" x2="237.54" y2="126.19" gradientTransform="translate(8.41 -13.9) rotate(3.62)" xlink:href="#b6e5079d-69a8-4d32-aa1a-21eab27cc84c"/><linearGradient id="bd523de4-2521-4be1-9a72-af0f44a84f24" x1="97.43" y1="53.07" x2="125.59" y2="32.06" xlink:href="#b34ddb91-8b6b-4f4b-9a12-8181f957b303"/><linearGradient id="f3034c38-0aaa-4be8-8172-ab962e241bef" x1="224.36" y1="109.62" x2="224.36" y2="129.4" xlink:href="#fcfa8100-2241-4884-b232-d91301d36086"/><linearGradient id="e6857c51-c9ac-44a8-af59-026ea8ba79ee" x1="334.92" y1="330.32" x2="334.92" y2="301.98" gradientTransform="translate(20.61 -20.5) rotate(3.62)" xlink:href="#b6e5079d-69a8-4d32-aa1a-21eab27cc84c"/><linearGradient id="b44d2c1f-26f6-4bc9-8823-cdc75fcc1c02" x1="321.74" y1="316.15" x2="348.09" y2="316.15" gradientTransform="translate(20.61 -20.5) rotate(3.62)" xlink:href="#b6e5079d-69a8-4d32-aa1a-21eab27cc84c"/><linearGradient id="b34e94b9-332d-4ffa-b217-7317c1ab9275" x1="207.98" y1="243.03" x2="236.14" y2="222.02" xlink:href="#b34ddb91-8b6b-4f4b-9a12-8181f957b303"/><linearGradient id="a7b73bb9-1646-4c96-960f-17dca917ee0a" x1="334.92" y1="299.58" x2="334.92" y2="319.36" xlink:href="#fcfa8100-2241-4884-b232-d91301d36086"/><linearGradient id="a0de4241-1d25-4b1b-b928-b52a6bc04b30" x1="211.34" y1="390.83" x2="211.34" y2="362.49" gradientTransform="translate(24.19 -12.58) rotate(3.62)" xlink:href="#b6e5079d-69a8-4d32-aa1a-21eab27cc84c"/><linearGradient id="ad4ab300-dcf9-46fc-a53a-fb977e725e68" x1="198.17" y1="376.66" x2="224.51" y2="376.66" gradientTransform="translate(24.18 -12.58) rotate(3.62)" xlink:href="#b6e5079d-69a8-4d32-aa1a-21eab27cc84c"/><linearGradient id="bb48c34a-410e-4df8-9d24-bb75657829f4" x1="84.4" y1="303.54" x2="112.56" y2="282.53" xlink:href="#b34ddb91-8b6b-4f4b-9a12-8181f957b303"/><linearGradient id="a5c3e292-7daa-4939-8b46-03dc013faa96" x1="211.34" y1="360.09" x2="211.34" y2="379.87" xlink:href="#fcfa8100-2241-4884-b232-d91301d36086"/><linearGradient id="af0ffe28-c33e-4ed2-90e7-43624579af0d" x1="308.36" y1="391.08" x2="308.36" y2="362.75" gradientTransform="translate(24.4 -18.71) rotate(3.62)" xlink:href="#b6e5079d-69a8-4d32-aa1a-21eab27cc84c"/><linearGradient id="b173b251-095c-459e-9372-c5453db38464" x1="295.19" y1="376.91" x2="321.54" y2="376.91" gradientTransform="translate(24.39 -18.7) rotate(3.62)" xlink:href="#b6e5079d-69a8-4d32-aa1a-21eab27cc84c"/><linearGradient id="aa545f7f-dba3-4505-bd8b-c857b4daa9a4" x1="181.43" y1="303.79" x2="209.59" y2="282.79" gradientUnits="userSpaceOnUse"><stop offset="0.23" stop-color="#e81e25"/><stop offset="0.44" stop-color="#dc1e24"/><stop offset="0.81" stop-color="#bc1e23"/><stop offset="1" stop-color="#a91e22"/></linearGradient><linearGradient id="abce04c6-1298-4860-83f5-49c3b7aab6d7" x1="308.36" y1="360.35" x2="308.36" y2="380.13" xlink:href="#fcfa8100-2241-4884-b232-d91301d36086"/><linearGradient id="f4bd1879-d020-4b4e-acd1-366c02bf7b21" x1="395.51" y1="330.83" x2="395.51" y2="302.49" gradientTransform="translate(20.77 -24.32) rotate(3.62)" xlink:href="#b6e5079d-69a8-4d32-aa1a-21eab27cc84c"/><linearGradient id="e5587c13-c0fa-41be-8e24-a4dfb8d56709" x1="382.34" y1="316.66" x2="408.69" y2="316.66" gradientTransform="translate(20.76 -24.32) rotate(3.62)" xlink:href="#b6e5079d-69a8-4d32-aa1a-21eab27cc84c"/><linearGradient id="e9f121b3-4fd1-4e05-9825-41ffb2a6cfdd" x1="268.57" y1="243.54" x2="296.73" y2="222.53" xlink:href="#aa545f7f-dba3-4505-bd8b-c857b4daa9a4"/><linearGradient id="b536f300-1519-4bde-9e27-d3ad78c1a5c6" x1="395.51" y1="300.09" x2="395.51" y2="319.87" xlink:href="#fcfa8100-2241-4884-b232-d91301d36086"/><linearGradient id="a375ea0d-b0bb-4fa9-9149-6ff1c5caeaa2" x1="190.24" y1="329.47" x2="190.24" y2="301.13" gradientTransform="translate(20.27 -11.37) rotate(3.62)" xlink:href="#b6e5079d-69a8-4d32-aa1a-21eab27cc84c"/><linearGradient id="e6489458-0839-4f98-987b-0025bab78758" x1="177.06" y1="315.3" x2="203.41" y2="315.3" gradientTransform="translate(20.27 -11.37) rotate(3.62)" xlink:href="#b6e5079d-69a8-4d32-aa1a-21eab27cc84c"/><linearGradient id="bf54fd04-f361-4d70-a62c-9b533063e97d" x1="63.3" y1="242.18" x2="91.46" y2="221.17" xlink:href="#aa545f7f-dba3-4505-bd8b-c857b4daa9a4"/><linearGradient id="f4ac6541-f201-43cf-baf0-c63baeef9941" x1="190.24" y1="298.73" x2="190.24" y2="318.51" xlink:href="#fcfa8100-2241-4884-b232-d91301d36086"/><linearGradient id="a8199f59-1ef5-44a9-8963-4f6a0c57fe53" x1="314.15" y1="269.55" x2="314.15" y2="241.21" gradientTransform="translate(16.74 -19.31) rotate(3.62)" xlink:href="#b6e5079d-69a8-4d32-aa1a-21eab27cc84c"/><linearGradient id="b5869202-9833-47c0-bc43-091c56ab7451" x1="300.98" y1="255.38" x2="327.32" y2="255.38" gradientTransform="translate(16.74 -19.31) rotate(3.62)" xlink:href="#b6e5079d-69a8-4d32-aa1a-21eab27cc84c"/><linearGradient id="f07acd3a-1b9e-45c7-9604-e624d10dcf99" x1="187.21" y1="182.26" x2="215.37" y2="161.25" xlink:href="#aa545f7f-dba3-4505-bd8b-c857b4daa9a4"/><linearGradient id="b41dfe1f-e14e-46d5-af5e-2564fe7ad79e" x1="314.15" y1="238.81" x2="314.15" y2="258.59" xlink:href="#fcfa8100-2241-4884-b232-d91301d36086"/><linearGradient id="e7b07be7-84be-4051-8ade-8a245ddf96b6" x1="315.17" y1="213.72" x2="315.17" y2="185.38" gradientTransform="translate(13.22 -19.49) rotate(3.62)" xlink:href="#b6e5079d-69a8-4d32-aa1a-21eab27cc84c"/><linearGradient id="f37547c0-1fed-4919-8139-fcc9c05cf0e7" x1="302" y1="199.55" x2="328.34" y2="199.55" gradientTransform="translate(13.22 -19.49) rotate(3.62)" xlink:href="#b6e5079d-69a8-4d32-aa1a-21eab27cc84c"/><linearGradient id="e4f44a02-2b71-431f-9307-9c5060a8ac0e" x1="188.23" y1="126.43" x2="216.39" y2="105.42" xlink:href="#aa545f7f-dba3-4505-bd8b-c857b4daa9a4"/><linearGradient id="f5e1cde9-1bee-422e-90dd-9069738da260" x1="315.17" y1="182.98" x2="315.17" y2="202.77" xlink:href="#fcfa8100-2241-4884-b232-d91301d36086"/><linearGradient id="a0d25cb5-20a4-43ce-9b75-95e77a52a9a8" x1="300.19" y1="140.87" x2="300.19" y2="112.53" gradientTransform="translate(8.59 -18.69) rotate(3.62)" xlink:href="#b6e5079d-69a8-4d32-aa1a-21eab27cc84c"/><linearGradient id="a100e338-d3ee-4f44-821a-26ff253c3fea" x1="287.02" y1="126.7" x2="313.37" y2="126.7" gradientTransform="translate(8.59 -18.69) rotate(3.62)" xlink:href="#b6e5079d-69a8-4d32-aa1a-21eab27cc84c"/><linearGradient id="bfdcc47a-fbe9-449b-b099-60070b7eeca8" x1="173.26" y1="53.58" x2="201.42" y2="32.57" xlink:href="#aa545f7f-dba3-4505-bd8b-c857b4daa9a4"/><linearGradient id="ba2654ed-0957-4b4e-bb74-6f1612375019" x1="300.19" y1="110.13" x2="300.19" y2="129.91" xlink:href="#fcfa8100-2241-4884-b232-d91301d36086"/><linearGradient id="ec9d4d23-f83b-49db-a001-1e2c7a844366" x1="210.96" y1="269.17" x2="210.96" y2="240.83" gradientTransform="translate(16.51 -12.8) rotate(3.62)" xlink:href="#b6e5079d-69a8-4d32-aa1a-21eab27cc84c"/><linearGradient id="aa6aec1a-1b71-4f35-9cec-7f17aed33964" x1="197.79" y1="255" x2="224.13" y2="255" gradientTransform="translate(16.51 -12.8) rotate(3.62)" xlink:href="#b6e5079d-69a8-4d32-aa1a-21eab27cc84c"/><linearGradient id="a6e8db5a-bc02-4b05-8520-19f25c0e0614" x1="84.02" y1="181.88" x2="112.18" y2="160.87" xlink:href="#b34ddb91-8b6b-4f4b-9a12-8181f957b303"/><linearGradient id="a3424dc0-4a8e-4a60-968b-58314988ede5" x1="210.96" y1="238.43" x2="210.96" y2="258.21" xlink:href="#fcfa8100-2241-4884-b232-d91301d36086"/><linearGradient id="a1db22bd-b6e5-49da-b5e3-1f858d4e02c2" x1="127.98" y1="330.45" x2="127.98" y2="302.11" gradientTransform="translate(20.21 -7.44) rotate(3.62)" xlink:href="#b6e5079d-69a8-4d32-aa1a-21eab27cc84c"/><linearGradient id="a77545c7-6e03-4a0c-a865-8efde117f94a" x1="114.81" y1="316.28" x2="141.15" y2="316.28" gradientTransform="translate(20.21 -7.44) rotate(3.62)" xlink:href="#b6e5079d-69a8-4d32-aa1a-21eab27cc84c"/><linearGradient id="a57912b4-b97d-4364-a6f2-7d9c3ba36e70" x1="1.04" y1="243.16" x2="29.2" y2="222.15" xlink:href="#b34ddb91-8b6b-4f4b-9a12-8181f957b303"/><linearGradient id="f5928056-b9b0-4814-9eb0-6c2bfff01f9d" x1="127.98" y1="299.71" x2="127.98" y2="319.49" xlink:href="#fcfa8100-2241-4884-b232-d91301d36086"/><linearGradient id="a6069747-adab-4bf1-9055-e205053a9712" x1="243.23" y1="189.93" x2="282.43" y2="204.12" gradientUnits="userSpaceOnUse"><stop offset="0" stop-color="#ddd"/><stop offset="0.54" stop-color="#d0d3cc"/><stop offset="0.82" stop-color="#ddd"/><stop offset="1" stop-color="#9e9e9e"/></linearGradient><linearGradient id="a5aa6686-b7ed-4ad2-866d-8bc7a957da2f" x1="251.92" y1="187.57" x2="284.27" y2="214.1" gradientUnits="userSpaceOnUse"><stop offset="0" stop-color="#9e9e9e"/><stop offset="0.4" stop-color="#c8c8c8"/><stop offset="0.89" stop-color="#7c7b7b"/><stop offset="1" stop-color="#989798"/></linearGradient><linearGradient id="e5a7c27f-8412-4629-b501-84aa7c9a5ae6" x1="311.71" y1="400.81" x2="312.43" y2="402.35" gradientTransform="translate(-263.11 134.07) rotate(-45)" gradientUnits="userSpaceOnUse"><stop offset="0" stop-color="#9e9e9e"/><stop offset="0.37" stop-color="#c2c2c2"/><stop offset="0.65" stop-color="#c2c2c2"/><stop offset="1" stop-color="#989798"/></linearGradient><linearGradient id="fb48c945-a1ce-4913-9ed3-c821b24f5e2d" x1="343.26" y1="432.36" x2="343.98" y2="433.9" xlink:href="#e5a7c27f-8412-4629-b501-84aa7c9a5ae6"/><linearGradient id="e697ff82-6af5-49d4-86d2-b671872e8155" x1="246.11" y1="121.36" x2="277.44" y2="132.69" xlink:href="#a6069747-adab-4bf1-9055-e205053a9712"/><linearGradient id="bc966141-6f19-4ded-9fdf-f28645d7878f" x1="253.06" y1="119.47" x2="278.91" y2="140.67" xlink:href="#a5aa6686-b7ed-4ad2-866d-8bc7a957da2f"/><linearGradient id="aec3573e-7d60-4f70-b772-f57cb6a0d326" x1="363.61" y1="353.7" x2="364.19" y2="354.93" xlink:href="#e5a7c27f-8412-4629-b501-84aa7c9a5ae6"/><linearGradient id="afe172cb-116e-49a3-88b4-f840a21d3dba" x1="388.83" y1="378.91" x2="389.4" y2="380.14" xlink:href="#e5a7c27f-8412-4629-b501-84aa7c9a5ae6"/><linearGradient id="ba00680b-640f-4441-ad90-d7b4a32c5667" x1="242.74" y1="246.65" x2="282.63" y2="261.09" xlink:href="#a6069747-adab-4bf1-9055-e205053a9712"/><linearGradient id="b36962b5-174d-425f-a44e-81feb86f84d7" x1="251.63" y1="244.29" x2="284.41" y2="271.18" xlink:href="#a5aa6686-b7ed-4ad2-866d-8bc7a957da2f"/><linearGradient id="bea24f1a-38e6-42ab-85f4-ca5ceafe68ad" x1="271.09" y1="440.59" x2="271.82" y2="442.14" xlink:href="#e5a7c27f-8412-4629-b501-84aa7c9a5ae6"/><linearGradient id="b0931fd6-aac4-4058-b14b-d49867566360" x1="303.29" y1="472.78" x2="304.02" y2="474.34" xlink:href="#e5a7c27f-8412-4629-b501-84aa7c9a5ae6"/><linearGradient id="b17b5e0d-7d27-4098-9a08-863071f83a59" x1="143.69" y1="338.71" x2="180.17" y2="351.91" gradientTransform="translate(-2.66 1.27) rotate(-0.44)" xlink:href="#a6069747-adab-4bf1-9055-e205053a9712"/><linearGradient id="b350f01a-9679-43f1-ac04-c74072d25f69" x1="151.82" y1="336.55" x2="181.8" y2="361.14" gradientTransform="translate(-2.66 1.27) rotate(-0.44)" xlink:href="#a5aa6686-b7ed-4ad2-866d-8bc7a957da2f"/><linearGradient id="ff8ebed9-4b65-4e04-adf2-6467a5ded1a0" x1="136.55" y1="435.36" x2="137.22" y2="436.78" gradientTransform="translate(-264.72 137.36) rotate(-45.44)" xlink:href="#e5a7c27f-8412-4629-b501-84aa7c9a5ae6"/><linearGradient id="b21cac3a-8f20-482c-b256-269f66f78587" x1="166" y1="464.8" x2="166.67" y2="466.23" gradientTransform="translate(-264.72 137.36) rotate(-45.44)" xlink:href="#e5a7c27f-8412-4629-b501-84aa7c9a5ae6"/><linearGradient id="b48acdb5-4b63-42c9-9444-197cc2d3c1bd" x1="344.7" y1="340.67" x2="382.06" y2="354.19" gradientTransform="translate(6.05 -7.77) rotate(0.99)" xlink:href="#a6069747-adab-4bf1-9055-e205053a9712"/><linearGradient id="e9377e00-5693-4cdb-a33b-2604f5a1e0c0" x1="353.03" y1="338.46" x2="383.73" y2="363.65" gradientTransform="translate(6.05 -7.77) rotate(0.99)" xlink:href="#a5aa6686-b7ed-4ad2-866d-8bc7a957da2f"/><linearGradient id="a0d572a3-997e-46f4-ab88-0ead1d322a79" x1="277.15" y1="578.96" x2="277.83" y2="580.42" gradientTransform="translate(-259.32 121.74) rotate(-44.01)" xlink:href="#e5a7c27f-8412-4629-b501-84aa7c9a5ae6"/><linearGradient id="ae85bd4d-429d-42e3-84e2-6a883a910423" x1="307.3" y1="609.11" x2="307.99" y2="610.57" gradientTransform="translate(-259.32 121.74) rotate(-44.01)" xlink:href="#e5a7c27f-8412-4629-b501-84aa7c9a5ae6"/><linearGradient id="ab5e6e3b-e747-4ce7-9d86-4bd18a2294b2" x1="244.57" y1="372.07" x2="276.35" y2="383.57" gradientTransform="translate(-0.84 -3.09) rotate(-0.05)" xlink:href="#a6069747-adab-4bf1-9055-e205053a9712"/><linearGradient id="fe56c485-8493-48db-b831-f89fb1833db4" x1="251.53" y1="370.09" x2="277.97" y2="391.78" gradientTransform="translate(-0.84 -3.09) rotate(-0.05)" xlink:href="#a5aa6686-b7ed-4ad2-866d-8bc7a957da2f"/><linearGradient id="b217bf24-2cd7-49b2-b447-ad6031f1d133" x1="185.28" y1="529.98" x2="185.88" y2="531.24" gradientTransform="matrix(0.71, -0.71, 0.71, 0.71, -263.83, 131.22)" xlink:href="#e5a7c27f-8412-4629-b501-84aa7c9a5ae6"/><linearGradient id="a56f9e23-b619-4217-b2be-d2deafab5c52" x1="210.6" y1="555.44" x2="211.19" y2="556.7" gradientTransform="matrix(0.71, -0.71, 0.71, 0.71, -263.83, 131.22)" xlink:href="#e5a7c27f-8412-4629-b501-84aa7c9a5ae6"/></defs><g style="isolation:isolate"><g id="a354cad8-93c4-4dda-ae0e-4166a7a2401f" data-name="Layer 1"><path d="M415.84,302.68a4.55,4.55,0,0,0-4.55-4.49l-27.11-.09a.74.74,0,0,1-.55-.26l-2.18-2.6a20,20,0,0,0-30.64.11L349,297.53a.68.68,0,0,1-.56.26l-28.34-.2a.73.73,0,0,0-.73.72v.89l-1.26,0,0-2.85a.72.72,0,0,0-.74-.73l-2.87,0a.72.72,0,0,0-.71.72l0,2.5h-1.21V301a.73.73,0,0,1-.74.72l-27.6-.14a.73.73,0,0,1-.72-.74l.25-14a.73.73,0,0,1,.73-.72h3.66a.73.73,0,0,0,.73-.72v-.57a.73.73,0,0,1,.72-.73h2.82a.73.73,0,0,0,.72-.72l0-2a.74.74,0,0,0-.73-.74h-2.66a.72.72,0,0,1-.73-.72v-.31a.73.73,0,0,0-.72-.73l-3.44,0a.73.73,0,0,1-.73-.73l0-4.23a2.2,2.2,0,0,1,2.2-1.92c7.78,0,36.64.23,44.39.44a2.3,2.3,0,0,0,2.33-1.92l0-.93a.73.73,0,0,1,.73-.71h3.86A2.93,2.93,0,0,0,341,266l-.38-20.58a2.45,2.45,0,0,0-2.47-2.52h-4.76a.73.73,0,0,1-.73-.72v-.42a3.4,3.4,0,0,0-3.4-3.38c-11.21-.05-36-.15-43-.13a2.48,2.48,0,0,1-2.49-2.43l0-4.25a.72.72,0,0,1,.72-.72l3.81-.07A.72.72,0,0,0,289,230v-.33a.72.72,0,0,1,.74-.73l2.51.06a.74.74,0,0,0,.74-.69l.09-1.77a.73.73,0,0,0-.72-.76h-2.6a.73.73,0,0,1-.72-.73v-.78a.73.73,0,0,0-.71-.73l-4-.12a.73.73,0,0,1-.7-.75l.13-5.37a.73.73,0,0,1,.73-.71c5.53,0,41.66.16,48,.17a1,1,0,0,0,1-1v-1.39l4.52-.07a3.21,3.21,0,0,0,3.16-3.19c0-1.44,0-2.82,0-2.82l0-22.9a2.44,2.44,0,0,0-2.39-2.36l-4.79-.08v-.66a2,2,0,0,0-2-2c-8.43.09-41.11.22-46.73.2a.74.74,0,0,1-.72-.75l.14-6.72a.74.74,0,0,1,.73-.72l3.65,0a.73.73,0,0,0,.72-.71v-.31a.73.73,0,0,1,.72-.71l2.8,0a.74.74,0,0,0,.72-.72l0-1.86a.73.73,0,0,0-.73-.74h-3a.72.72,0,0,1-.72-.72v-.25a.73.73,0,0,0-.73-.73h-3.65a.72.72,0,0,1-.73-.72v-5.37a.72.72,0,0,1,.72-.72l30.39-.27a7.58,7.58,0,0,0,7.51-7.5c.13-14,.2-45.87.22-56.13A3.2,3.2,0,0,0,320,91.64l-3.2,0a.72.72,0,0,1-.73-.73V87.82a.73.73,0,0,0-.73-.72l-52.89.33-51.39-.17a.72.72,0,0,0-.73.73v3.13a.72.72,0,0,1-.74.72l-3.2,0A3.22,3.22,0,0,0,203.18,95c0,10.25.1,42.07.22,56.12a7.58,7.58,0,0,0,7.52,7.5l30.39.27a.73.73,0,0,1,.72.73V165a.73.73,0,0,1-.73.72h-3.65a.73.73,0,0,0-.73.73v.25a.73.73,0,0,1-.73.73h-3a.72.72,0,0,0-.72.73l0,1.87a.71.71,0,0,0,.72.71l3.23,0c.39,0,.28.38.28.77v.31a.74.74,0,0,0,.72.72l3.65,0a.72.72,0,0,1,.72.71L242,180a.72.72,0,0,1-.72.74c-5.62,0-38.29-.1-46.73-.2a2,2,0,0,0-2,2v.65l-4.79.08a2.45,2.45,0,0,0-2.4,2.36l0,22.9s0,1.38,0,2.82a3.22,3.22,0,0,0,3.16,3.19l4.52.08v1.38a1,1,0,0,0,1,1c6.35,0,42.48-.15,48-.17a.72.72,0,0,1,.73.71l.14,5.37a.73.73,0,0,1-.71.75l-4,.12a.74.74,0,0,0-.7.73v.78a.73.73,0,0,1-.73.73h-2.59a.73.73,0,0,0-.73.76l.1,1.77a.72.72,0,0,0,.74.69l2.51-.06a.73.73,0,0,1,.74.73v.33a.73.73,0,0,0,.71.73L242,231a.72.72,0,0,1,.71.72l0,4.25a2.5,2.5,0,0,1-2.5,2.44c-7,0-31.8.08-43,.12a3.43,3.43,0,0,0-3.41,3.39v.41a.73.73,0,0,1-.73.72h-4.77a2.46,2.46,0,0,0-2.47,2.52l-.38,20.59a2.94,2.94,0,0,0,3.23,2.92h3.87a.72.72,0,0,1,.73.7l0,.93a2.27,2.27,0,0,0,2.32,1.92c7.76-.21,36.61-.39,44.4-.44a2.21,2.21,0,0,1,2.2,1.93l0,4.22a.73.73,0,0,1-.72.74h-3.44a.73.73,0,0,0-.72.73v.31a.73.73,0,0,1-.73.73l-2.66,0a.72.72,0,0,0-.73.74l0,2a.73.73,0,0,0,.73.72h2.81a.73.73,0,0,1,.73.73v.57a.73.73,0,0,0,.72.73H242a.72.72,0,0,1,.73.71l.25,14a.73.73,0,0,1-.73.74l-27.6.14a.73.73,0,0,1-.73-.72l0-2.1h-1.21l0-2.51a.74.74,0,0,0-.72-.72l-2.86,0a.73.73,0,0,0-.74.74l0,2.84-1.25,0v-.89a.74.74,0,0,0-.74-.72L178,298a.74.74,0,0,1-.57-.27l-1.8-2.17A20,20,0,0,0,145,295.4l-2.19,2.6a.72.72,0,0,1-.55.26l-27.11.09a4.55,4.55,0,0,0-4.54,4.5c-.08,6.15-.1,17.91-.1,25.24a6.36,6.36,0,0,0,6.42,6.35l89.27-1a.72.72,0,0,0,.72-.74l0-1.25h1.21v2.28a.74.74,0,0,0,.73.73h2.58a.72.72,0,0,0,.72-.74v-1.32a.73.73,0,0,1,.71-.74.72.72,0,0,0,.71-.73l0-1.77a.73.73,0,0,1,.73-.74l27.4-.09a.73.73,0,0,1,.73.71l.27,13.89a.72.72,0,0,1-.71.74l-4,.09a.73.73,0,0,0-.71.72v.16a.73.73,0,0,1-.73.72l-2.67,0a.72.72,0,0,0-.73.74l0,2.47a.73.73,0,0,0,.74.71l2.56,0a.72.72,0,0,1,.74.72V350a.73.73,0,0,0,.74.73l3.86,0a.79.79,0,0,1,.71.84l-.05,6a.73.73,0,0,1-.71.72l-46.35.55a2.16,2.16,0,0,0-2,2l-.16,2.35-4.72.12a2.39,2.39,0,0,0-2.32,2.15c-.32,3.3-.39,19.39-.31,23a2.37,2.37,0,0,0,2.37,2.33h5.17l.06,1.46a2.62,2.62,0,0,0,2.73,2.51l45.93-.48,0,3.91H237l0,1.54-3.79.08v2.72l29.74-.33,30.3.17v-2.72l-3.79-.09,0-1.53H284.4l0-3.91,45.93.47a2.6,2.6,0,0,0,2.73-2.5l.07-1.46h5.16a2.38,2.38,0,0,0,2.38-2.33c.07-3.61,0-19.7-.32-23a2.39,2.39,0,0,0-2.32-2.15l-4.72-.11-.15-2.35a2.15,2.15,0,0,0-2.06-2l-46.35-.55a.73.73,0,0,1-.7-.72l-.07-6.22a.72.72,0,0,1,.74-.73l3.84.07a.72.72,0,0,0,.74-.73v-.05A.74.74,0,0,1,290,349l2.56.05a.72.72,0,0,0,.74-.72l0-2.46a.74.74,0,0,0-.73-.74l-2.68,0a.74.74,0,0,1-.73-.73v-.15a.72.72,0,0,0-.71-.72h-4a.8.8,0,0,1-.71-.82l.27-13.89a.72.72,0,0,1,.73-.71l27.4.09a.72.72,0,0,1,.72.73v1.78a.72.72,0,0,0,.71.73.73.73,0,0,1,.71.74l0,1.32a.73.73,0,0,0,.73.74h2.57a.73.73,0,0,0,.73-.72l0-2.29h1.21l0,1.26a.73.73,0,0,0,.72.74l89.27,1a6.34,6.34,0,0,0,6.42-6.35C415.93,320.6,415.92,308.84,415.84,302.68Z" transform="translate(-109.54 -86.1)" style="fill:#231f20;stroke:#fff;stroke-miterlimit:10;stroke-width:2px"/><rect x="127.16" y="80.05" width="53.06" height="1.28" rx="0.64" style="fill:none;stroke:#fff;stroke-miterlimit:10"/><rect x="126.97" y="84.2" width="53.36" height="1.72" rx="0.86" style="fill:none;stroke:#fff;stroke-miterlimit:10"/><rect x="123.31" y="81.52" width="60.83" height="2.53" rx="0.64" style="fill:none;stroke:#fff;stroke-miterlimit:10"/><rect x="128.15" y="137.88" width="51.18" height="1.91" rx="0.64" style="fill:none;stroke:#fff;stroke-miterlimit:10"/><rect x="127.76" y="142.56" width="51.96" height="2.04" rx="0.96" style="fill:none;stroke:#fff;stroke-miterlimit:10"/><rect x="124.4" y="139.94" width="58.64" height="2.53" rx="0.38" style="fill:none;stroke:#fff;stroke-miterlimit:10"/><rect x="127.71" y="193.11" width="52.13" height="1.91" rx="0.64" style="fill:none;stroke:#fff;stroke-miterlimit:10"/><rect x="128.07" y="197.8" width="51.22" height="2.04" rx="0.56" style="fill:none;stroke:#fff;stroke-miterlimit:10"/><rect x="124.23" y="195.11" width="58.91" height="2.6" rx="0.38" style="fill:none;stroke:#fff;stroke-miterlimit:10"/><path d="M128.53,257.71H179a1,1,0,0,1,1,1V259a.51.51,0,0,1-.51.51H127.84a.51.51,0,0,1-.51-.51v-.13a1.2,1.2,0,0,1,1.2-1.2Z" style="fill:none;stroke:#fff;stroke-miterlimit:10"/><path d="M127.84,262.5h51.74a.34.34,0,0,1,.34.34v1.05a.65.65,0,0,1-.65.65H128.74a1.23,1.23,0,0,1-1.23-1.23v-.47a.34.34,0,0,1,.34-.34Z" style="fill:none;stroke:#fff;stroke-miterlimit:10"/><path d="M292.66,348.47l-58.66.15a.38.38,0,0,1-.38-.39v-2a.39.39,0,0,1,.38-.39l58.66-.15a.39.39,0,0,1,.38.39v2A.38.38,0,0,1,292.66,348.47Z" transform="translate(-109.54 -86.1)" style="fill:none;stroke:#fff;stroke-miterlimit:10"/><g id="a64c932f-7806-4844-a9ea-fab7817d81fd" data-name="piperamsupopen"><circle cx="210.83" cy="199.47" r="14.17" transform="translate(-121.71 -72.4) rotate(-3.62)" style="fill:url(#b6e5079d-69a8-4d32-aa1a-21eab27cc84c)"/><circle cx="210.83" cy="199.47" r="13.17" transform="translate(-121.7 -72.4) rotate(-3.62)" style="opacity:0.8;mix-blend-mode:multiply;fill:url(#a3925cf9-9b5a-4fd1-8a41-1c89d1b437fb)"/><circle cx="101.29" cy="113.37" r="12.68" style="fill:url(#b34ddb91-8b6b-4f4b-9a12-8181f957b303)"/><path d="M224,199.47a13.21,13.21,0,0,1-3.81,9.35,13.37,13.37,0,1,1,0-18.71A13.23,13.23,0,0,1,224,199.47Zm0,0a13,13,0,0,0-13.17-13,13,13,0,0,0-9.08,3.9,13,13,0,0,0,0,18.16A13,13,0,0,0,224,199.47Z" transform="translate(-109.54 -86.1)" style="fill:#fff"/><path d="M222.41,199.47c0,6.39-5.18,1.89-11.58,1.89s-11.58,4.5-11.58-1.89a11.58,11.58,0,1,1,23.16,0Z" transform="translate(-109.54 -86.1)" style="fill:url(#fcfa8100-2241-4884-b232-d91301d36086)"/><path d="M201.67,201.69a2.63,2.63,0,0,1-1-1,2.83,2.83,0,0,1-.38-1.47,2.77,2.77,0,0,1,.38-1.46,2.66,2.66,0,0,1,1-1,3,3,0,0,1,2.86,0,2.66,2.66,0,0,1,1,1,2.86,2.86,0,0,1,.38,1.46,2.93,2.93,0,0,1-.38,1.47,2.63,2.63,0,0,1-1,1,2.95,2.95,0,0,1-2.86,0Zm2.41-.68a1.69,1.69,0,0,0,.68-.72,2.55,2.55,0,0,0,0-2.16,1.73,1.73,0,0,0-.68-.71,2.07,2.07,0,0,0-2,0,1.65,1.65,0,0,0-.67.71,2.46,2.46,0,0,0,0,2.16,1.62,1.62,0,0,0,.67.72,2,2,0,0,0,2,0Z" transform="translate(-109.54 -86.1)" style="fill:#fff"/><path d="M208.38,197.73a1.87,1.87,0,0,1,.9-.21,2,2,0,0,1,1.05.29,2,2,0,0,1,.75.79,2.5,2.5,0,0,1,.27,1.18,2.57,2.57,0,0,1-.27,1.19,2,2,0,0,1-.75.81,2.08,2.08,0,0,1-2,.09,2,2,0,0,1-.64-.51v2.74h-.91v-6.51h.91v.65A2,2,0,0,1,208.38,197.73Zm1.86,1.26a1.27,1.27,0,0,0-.5-.5,1.28,1.28,0,0,0-.66-.18,1.25,1.25,0,0,0-.65.18,1.36,1.36,0,0,0-.5.51,1.76,1.76,0,0,0,0,1.59,1.32,1.32,0,0,0,.5.52,1.34,1.34,0,0,0,.65.17,1.28,1.28,0,0,0,.66-.18,1.32,1.32,0,0,0,.5-.52,1.71,1.71,0,0,0,.18-.8A1.62,1.62,0,0,0,210.24,199Z" transform="translate(-109.54 -86.1)" style="fill:#fff"/><path d="M216.26,200.14H212.9a1.19,1.19,0,0,0,.39.85,1.24,1.24,0,0,0,.86.32,1.07,1.07,0,0,0,1-.62h1a2,2,0,0,1-.73,1,2.11,2.11,0,0,1-1.3.38,2.23,2.23,0,0,1-1.13-.28,2.07,2.07,0,0,1-.78-.8,2.65,2.65,0,0,1,0-2.39,1.92,1.92,0,0,1,.77-.8,2.42,2.42,0,0,1,1.15-.28,2.23,2.23,0,0,1,1.11.27,1.94,1.94,0,0,1,.76.77,2.2,2.2,0,0,1,.28,1.13A2,2,0,0,1,216.26,200.14Zm-.92-.74a1,1,0,0,0-.36-.81,1.28,1.28,0,0,0-.87-.3,1.2,1.2,0,0,0-.81.3,1.31,1.31,0,0,0-.4.81Z" transform="translate(-109.54 -86.1)" style="fill:#fff"/><path d="M220.35,197.74a1.52,1.52,0,0,1,.64.64,2,2,0,0,1,.23,1V202h-.9v-2.46a1.26,1.26,0,0,0-.3-.91,1,1,0,0,0-.8-.32,1.09,1.09,0,0,0-.82.32,1.26,1.26,0,0,0-.3.91V202h-.91v-4.41h.91v.51a1.6,1.6,0,0,1,.58-.43,1.81,1.81,0,0,1,.74-.15A1.93,1.93,0,0,1,220.35,197.74Z" transform="translate(-109.54 -86.1)" style="fill:#fff"/></g><g id="f8a689dc-6146-4d96-a0aa-492dcc89b850" data-name="annularopen"><circle cx="224.36" cy="126.19" r="14.17" transform="translate(-117.06 -71.69) rotate(-3.62)" style="fill:url(#b97fb1a5-dad7-4e79-8874-254396941288)"/><circle cx="224.36" cy="126.19" r="13.17" transform="translate(-117.05 -71.69) rotate(-3.62)" style="opacity:0.8;mix-blend-mode:multiply;fill:url(#fdebdbe4-180e-4a78-9218-2a500fd36311)"/><circle cx="114.82" cy="40.09" r="12.68" style="fill:url(#bd523de4-2521-4be1-9a72-af0f44a84f24)"/><path d="M237.54,126.19a13.24,13.24,0,0,1-3.82,9.36,13.37,13.37,0,0,1-18.91.19,13.38,13.38,0,0,1,0-19.1,13.36,13.36,0,0,1,18.91.2A13.22,13.22,0,0,1,237.54,126.19Zm0,0a13.21,13.21,0,0,0-3.9-9.27,13,13,0,0,0-18.35.19,13,13,0,0,0,0,18.16,13,13,0,0,0,18.36.2A13.21,13.21,0,0,0,237.54,126.19Z" transform="translate(-109.54 -86.1)" style="fill:#fff"/><path d="M235.94,126.19c0,6.4-5.18,1.89-11.58,1.89s-11.58,4.51-11.58-1.89a11.58,11.58,0,1,1,23.16,0Z" transform="translate(-109.54 -86.1)" style="fill:url(#f3034c38-0aaa-4be8-8172-ab962e241bef)"/><path d="M215.2,128.42a2.66,2.66,0,0,1-1-1,3,3,0,0,1,0-2.93,2.7,2.7,0,0,1,1-1,2.95,2.95,0,0,1,2.86,0,2.63,2.63,0,0,1,1,1,3,3,0,0,1,0,2.93,2.59,2.59,0,0,1-1,1,3,3,0,0,1-2.86,0Zm2.41-.68a1.75,1.75,0,0,0,.68-.72,2.37,2.37,0,0,0,.24-1.09,2.32,2.32,0,0,0-.24-1.08,1.72,1.72,0,0,0-.68-.71,2,2,0,0,0-1-.25,2,2,0,0,0-1,.25,1.77,1.77,0,0,0-.67.71,2.33,2.33,0,0,0-.25,1.08A2.37,2.37,0,0,0,215,127a1.79,1.79,0,0,0,.67.72,1.92,1.92,0,0,0,1,.25A1.88,1.88,0,0,0,217.61,127.74Z" transform="translate(-109.54 -86.1)" style="fill:#fff"/><path d="M221.91,124.45a2,2,0,0,1,.9-.2,2,2,0,0,1,1.05.28,1.93,1.93,0,0,1,.75.8,2.46,2.46,0,0,1,.27,1.17,2.57,2.57,0,0,1-.27,1.19,2.05,2.05,0,0,1-.75.82,2,2,0,0,1-1.05.29,1.86,1.86,0,0,1-.89-.21,1.81,1.81,0,0,1-.64-.5v2.73h-.92v-6.5h.92V125A1.73,1.73,0,0,1,221.91,124.45Zm1.86,1.26a1.27,1.27,0,0,0-.5-.5,1.35,1.35,0,0,0-.66-.17,1.37,1.37,0,0,0-.65.17,1.32,1.32,0,0,0-.5.52,1.62,1.62,0,0,0-.18.79,1.65,1.65,0,0,0,.18.79,1.32,1.32,0,0,0,.5.52,1.28,1.28,0,0,0,.65.18,1.26,1.26,0,0,0,.66-.18,1.35,1.35,0,0,0,.5-.53,1.76,1.76,0,0,0,0-1.59Z" transform="translate(-109.54 -86.1)" style="fill:#fff"/><path d="M229.8,126.86h-3.37a1.22,1.22,0,0,0,.39.85,1.24,1.24,0,0,0,.86.32,1.07,1.07,0,0,0,1-.62h1a2,2,0,0,1-.73,1,2.11,2.11,0,0,1-1.3.39,2.26,2.26,0,0,1-1.13-.29,2,2,0,0,1-.78-.8,2.41,2.41,0,0,1-.29-1.19,2.56,2.56,0,0,1,.28-1.2,1.86,1.86,0,0,1,.78-.79,2.24,2.24,0,0,1,1.14-.28,2.29,2.29,0,0,1,1.12.27,2,2,0,0,1,.76.76,2.33,2.33,0,0,1,.27,1.13A3,3,0,0,1,229.8,126.86Zm-.92-.73a1.06,1.06,0,0,0-.36-.81,1.33,1.33,0,0,0-.88-.31,1.15,1.15,0,0,0-.8.3,1.22,1.22,0,0,0-.4.82Z" transform="translate(-109.54 -86.1)" style="fill:#fff"/><path d="M233.88,124.46a1.58,1.58,0,0,1,.64.64,2.06,2.06,0,0,1,.24,1v2.6h-.91v-2.47a1.32,1.32,0,0,0-.29-.91,1.21,1.21,0,0,0-1.62,0,1.28,1.28,0,0,0-.3.91v2.47h-.92v-4.41h.92v.5a1.51,1.51,0,0,1,.57-.42,1.85,1.85,0,0,1,.74-.15A2,2,0,0,1,233.88,124.46Z" transform="translate(-109.54 -86.1)" style="fill:#fff"/></g><g id="a9e73d1d-5b4f-4bf4-b95c-2d0ea4103e48" data-name="chocklineopen"><circle cx="334.92" cy="316.15" r="14.17" transform="translate(-128.82 -64.34) rotate(-3.62)" style="fill:url(#e6857c51-c9ac-44a8-af59-026ea8ba79ee)"/><circle cx="334.92" cy="316.15" r="13.17" transform="translate(-128.82 -64.34) rotate(-3.62)" style="opacity:0.8;mix-blend-mode:multiply;fill:url(#b44d2c1f-26f6-4bc9-8823-cdc75fcc1c02)"/><circle cx="225.38" cy="230.05" r="12.68" style="fill:url(#b34e94b9-332d-4ffa-b217-7317c1ab9275)"/><path d="M348.09,316.15a13.22,13.22,0,0,1-3.82,9.35,13.36,13.36,0,0,1-18.91.2,13.38,13.38,0,0,1,0-19.1,13.37,13.37,0,0,1,18.91.19A13.24,13.24,0,0,1,348.09,316.15Zm0,0a13,13,0,0,0-13.17-13,13,13,0,0,0-9.08,3.9,13,13,0,0,0,9.08,22.06,13,13,0,0,0,13.17-13Z" transform="translate(-109.54 -86.1)" style="fill:#fff"/><path d="M346.5,316.15c0,6.39-5.19,1.89-11.58,1.89s-11.58,4.5-11.58-1.89a11.58,11.58,0,1,1,23.16,0Z" transform="translate(-109.54 -86.1)" style="fill:url(#a7b73bb9-1646-4c96-960f-17dca917ee0a)"/><path d="M325.75,318.38a2.8,2.8,0,0,1-1-1,2.9,2.9,0,0,1-.38-1.47,2.86,2.86,0,0,1,.38-1.46,2.7,2.7,0,0,1,1-1,2.82,2.82,0,0,1,1.43-.37,2.86,2.86,0,0,1,1.44.37,2.77,2.77,0,0,1,1,1,2.86,2.86,0,0,1,.37,1.46,2.76,2.76,0,0,1-1.4,2.49,3,3,0,0,1-1.44.36A2.92,2.92,0,0,1,325.75,318.38Zm2.42-.68a1.79,1.79,0,0,0,.67-.72,2.4,2.4,0,0,0,.25-1.09,2.33,2.33,0,0,0-.25-1.08,1.7,1.7,0,0,0-.67-.71,1.92,1.92,0,0,0-1-.25,1.88,1.88,0,0,0-1,.25,1.67,1.67,0,0,0-.68.71,2.32,2.32,0,0,0-.24,1.08,2.39,2.39,0,0,0,.24,1.09,1.75,1.75,0,0,0,.68.72,2,2,0,0,0,1,.25A2,2,0,0,0,328.17,317.7Z" transform="translate(-109.54 -86.1)" style="fill:#fff"/><path d="M332.46,314.41a1.94,1.94,0,0,1,.91-.21,2,2,0,0,1,1.8,1.08,2.5,2.5,0,0,1,.27,1.18,2.57,2.57,0,0,1-.27,1.19,2,2,0,0,1-.75.81,1.93,1.93,0,0,1-1.05.29,1.87,1.87,0,0,1-.9-.2,1.9,1.9,0,0,1-.64-.51v2.74h-.91v-6.5h.91v.64A1.91,1.91,0,0,1,332.46,314.41Zm1.86,1.26a1.24,1.24,0,0,0-.49-.5,1.37,1.37,0,0,0-1.32,0,1.34,1.34,0,0,0-.49.51,1.76,1.76,0,0,0,0,1.59,1.3,1.3,0,0,0,.49.52,1.41,1.41,0,0,0,.66.17,1.31,1.31,0,0,0,.66-.18,1.3,1.3,0,0,0,.49-.52,1.6,1.6,0,0,0,.19-.8A1.54,1.54,0,0,0,334.32,315.67Z" transform="translate(-109.54 -86.1)" style="fill:#fff"/><path d="M340.35,316.82H337a1.21,1.21,0,0,0,1.26,1.17,1.08,1.08,0,0,0,1-.62h1a2,2,0,0,1-.72,1,2.13,2.13,0,0,1-1.3.38,2.23,2.23,0,0,1-1.13-.28,2,2,0,0,1-.79-.8,2.41,2.41,0,0,1-.28-1.19,2.53,2.53,0,0,1,.27-1.2,2.07,2.07,0,0,1,.78-.8,2.39,2.39,0,0,1,1.15-.28,2.18,2.18,0,0,1,1.11.28,1.92,1.92,0,0,1,.76.76,2.3,2.3,0,0,1,.27,1.13A3,3,0,0,1,340.35,316.82Zm-.92-.74a1.06,1.06,0,0,0-.36-.8,1.27,1.27,0,0,0-.87-.31,1.16,1.16,0,0,0-.81.3,1.26,1.26,0,0,0-.4.81Z" transform="translate(-109.54 -86.1)" style="fill:#fff"/><path d="M344.43,314.42a1.54,1.54,0,0,1,.65.64,2.13,2.13,0,0,1,.23,1v2.6h-.9v-2.46a1.28,1.28,0,0,0-.3-.91,1.21,1.21,0,0,0-1.62,0,1.28,1.28,0,0,0-.3.91v2.46h-.91v-4.4h.91v.5a1.51,1.51,0,0,1,.57-.42,1.7,1.7,0,0,1,.74-.16A2,2,0,0,1,344.43,314.42Z" transform="translate(-109.54 -86.1)" style="fill:#fff"/></g><g id="a100a488-4d17-40e4-a78a-d7c6cab25f25" data-name="piperamsbottomopen"><circle cx="211.34" cy="376.66" r="14.17" transform="translate(-132.89 -72.01) rotate(-3.62)" style="fill:url(#a0de4241-1d25-4b1b-b928-b52a6bc04b30)"/><circle cx="211.34" cy="376.66" r="13.17" transform="translate(-132.88 -72.02) rotate(-3.62)" style="opacity:0.8;mix-blend-mode:multiply;fill:url(#ad4ab300-dcf9-46fc-a53a-fb977e725e68)"/><circle cx="101.8" cy="290.56" r="12.68" style="fill:url(#bb48c34a-410e-4df8-9d24-bb75657829f4)"/><path d="M224.51,376.66A13.17,13.17,0,0,1,220.7,386a13.37,13.37,0,1,1,0-18.71A13.21,13.21,0,0,1,224.51,376.66Zm0,0a13,13,0,0,0-22.25-9.08,13,13,0,0,0,0,18.16,13,13,0,0,0,22.25-9.08Z" transform="translate(-109.54 -86.1)" style="fill:#fff"/><path d="M222.92,376.66c0,6.4-5.18,1.89-11.58,1.89s-11.58,4.51-11.58-1.89a11.58,11.58,0,1,1,23.16,0Z" transform="translate(-109.54 -86.1)" style="fill:url(#a5c3e292-7daa-4939-8b46-03dc013faa96)"/><path d="M202.18,378.89a2.73,2.73,0,0,1-1-1,3,3,0,0,1,0-2.93,2.63,2.63,0,0,1,1-1,2.95,2.95,0,0,1,2.86,0,2.63,2.63,0,0,1,1,1,3,3,0,0,1,0,2.93,2.73,2.73,0,0,1-1,1,3,3,0,0,1-2.86,0Zm2.41-.68a1.82,1.82,0,0,0,.68-.72,2.39,2.39,0,0,0,.24-1.09,2.32,2.32,0,0,0-.24-1.08,1.79,1.79,0,0,0-.68-.71,2,2,0,0,0-1-.25,2,2,0,0,0-1,.25,1.7,1.7,0,0,0-.67.71,2.21,2.21,0,0,0-.25,1.08,2.28,2.28,0,0,0,.25,1.09,1.73,1.73,0,0,0,.67.72,2,2,0,0,0,1,.25A2,2,0,0,0,204.59,378.21Z" transform="translate(-109.54 -86.1)" style="fill:#fff"/><path d="M208.89,374.92a1.9,1.9,0,0,1,.9-.21,2,2,0,0,1,1.8,1.08,2.53,2.53,0,0,1,.27,1.18,2.57,2.57,0,0,1-.27,1.19,2,2,0,0,1-.75.81,1.89,1.89,0,0,1-1.05.3,1.86,1.86,0,0,1-.89-.21,1.73,1.73,0,0,1-.64-.51v2.74h-.92v-6.5h.92v.64A1.81,1.81,0,0,1,208.89,374.92Zm1.86,1.26a1.27,1.27,0,0,0-.5-.5,1.35,1.35,0,0,0-1.31,0,1.36,1.36,0,0,0-.5.51,1.69,1.69,0,0,0-.18.8,1.65,1.65,0,0,0,.18.79,1.32,1.32,0,0,0,.5.52,1.24,1.24,0,0,0,.65.17,1.26,1.26,0,0,0,.66-.18,1.32,1.32,0,0,0,.5-.52,1.72,1.72,0,0,0,.19-.8A1.65,1.65,0,0,0,210.75,376.18Z" transform="translate(-109.54 -86.1)" style="fill:#fff"/><path d="M216.77,377.33h-3.36a1.19,1.19,0,0,0,.39.85,1.24,1.24,0,0,0,.86.32,1.07,1.07,0,0,0,1-.62h1a2,2,0,0,1-.73,1,2.11,2.11,0,0,1-1.3.39,2.24,2.24,0,0,1-1.13-.29,2,2,0,0,1-.78-.8,2.41,2.41,0,0,1-.29-1.19,2.53,2.53,0,0,1,.28-1.2,1.94,1.94,0,0,1,.78-.8,2.35,2.35,0,0,1,1.14-.28,2.13,2.13,0,0,1,1.11.28,1.94,1.94,0,0,1,.77.76,2.33,2.33,0,0,1,.27,1.13A2,2,0,0,1,216.77,377.33Zm-.92-.74a1,1,0,0,0-.35-.8,1.28,1.28,0,0,0-.88-.31,1.2,1.2,0,0,0-.81.3,1.25,1.25,0,0,0-.39.81Z" transform="translate(-109.54 -86.1)" style="fill:#fff"/><path d="M220.86,374.93a1.52,1.52,0,0,1,.64.64,2,2,0,0,1,.23,1v2.6h-.9v-2.46a1.32,1.32,0,0,0-.29-.91,1.21,1.21,0,0,0-1.62,0,1.24,1.24,0,0,0-.3.91v2.46h-.92v-4.4h.92v.5a1.44,1.44,0,0,1,.57-.42,1.7,1.7,0,0,1,.74-.16A2.06,2.06,0,0,1,220.86,374.93Z" transform="translate(-109.54 -86.1)" style="fill:#fff"/></g><g id="a0d72715-b844-46ca-a41b-1a8b264900b6" data-name="pipramsbottomclose"><circle cx="308.36" cy="376.91" r="14.17" transform="translate(-132.71 -65.89) rotate(-3.62)" style="fill:url(#af0ffe28-c33e-4ed2-90e7-43624579af0d)"/><circle cx="308.36" cy="376.91" r="13.17" transform="translate(-132.7 -65.89) rotate(-3.62)" style="opacity:0.8;mix-blend-mode:multiply;fill:url(#b173b251-095c-459e-9372-c5453db38464)"/><circle cx="198.82" cy="290.82" r="12.68" style="fill:url(#aa545f7f-dba3-4505-bd8b-c857b4daa9a4)"/><path d="M321.54,376.91a13.24,13.24,0,0,1-3.82,9.36,13.39,13.39,0,0,1-18.91.2,13.38,13.38,0,0,1,9.55-22.93,13.4,13.4,0,0,1,9.36,4A13.24,13.24,0,0,1,321.54,376.91Zm0,0a13.21,13.21,0,0,0-3.9-9.27,13,13,0,0,0-18.35.2,13,13,0,0,0,0,18.15,13,13,0,0,0,18.36.2A13.21,13.21,0,0,0,321.54,376.91Z" transform="translate(-109.54 -86.1)" style="fill:#fff"/><path d="M319.94,376.91c0,6.4-5.18,1.89-11.58,1.89s-11.58,4.51-11.58-1.89a11.58,11.58,0,1,1,23.16,0Z" transform="translate(-109.54 -86.1)" style="fill:url(#abce04c6-1298-4860-83f5-49c3b7aab6d7)"/><path d="M297.78,375.19a2.63,2.63,0,0,1,1-1,2.89,2.89,0,0,1,1.43-.36,2.93,2.93,0,0,1,1.58.43,2.51,2.51,0,0,1,1,1.24h-1.1a1.48,1.48,0,0,0-.6-.66,1.79,1.79,0,0,0-.88-.21,1.92,1.92,0,0,0-1,.25,1.65,1.65,0,0,0-.67.71,2.46,2.46,0,0,0,0,2.16,1.65,1.65,0,0,0,.67.71,1.92,1.92,0,0,0,1,.26,1.79,1.79,0,0,0,.88-.22,1.39,1.39,0,0,0,.6-.66h1.1a2.47,2.47,0,0,1-1,1.24,3,3,0,0,1-1.58.43,2.83,2.83,0,0,1-1.44-.37,2.67,2.67,0,0,1-1-1,3,3,0,0,1,0-2.93Z" transform="translate(-109.54 -86.1)" style="fill:#fff"/><path d="M304.8,373.53v5.92h-.92v-5.92Z" transform="translate(-109.54 -86.1)" style="fill:#fff"/><path d="M306.78,379.24a2,2,0,0,1-.79-.8,2.45,2.45,0,0,1-.29-1.2,2.34,2.34,0,0,1,.3-1.19,2,2,0,0,1,.8-.8A2.36,2.36,0,0,1,308,375a2.29,2.29,0,0,1,1.14.28,2.08,2.08,0,0,1,.81.8,2.47,2.47,0,0,1,0,2.38,2.09,2.09,0,0,1-.83.81,2.36,2.36,0,0,1-1.15.28A2.26,2.26,0,0,1,306.78,379.24Zm1.79-.68a1.33,1.33,0,0,0,.5-.5,1.63,1.63,0,0,0,.19-.82,1.67,1.67,0,0,0-.18-.81,1.31,1.31,0,0,0-.49-.5,1.35,1.35,0,0,0-1.31,0,1.22,1.22,0,0,0-.48.5,1.8,1.8,0,0,0-.17.81,1.55,1.55,0,0,0,.36,1.1,1.22,1.22,0,0,0,.92.39A1.41,1.41,0,0,0,308.57,378.56Z" transform="translate(-109.54 -86.1)" style="fill:#fff"/><path d="M311.77,379.33a1.52,1.52,0,0,1-.65-.51,1.27,1.27,0,0,1-.26-.72h.94a.7.7,0,0,0,.27.47,1,1,0,0,0,.61.18,1.11,1.11,0,0,0,.6-.14.46.46,0,0,0,.21-.38.39.39,0,0,0-.23-.37,4.9,4.9,0,0,0-.75-.27,6.52,6.52,0,0,1-.81-.26,1.5,1.5,0,0,1-.54-.39,1.05,1.05,0,0,1-.23-.7,1.07,1.07,0,0,1,.21-.64,1.34,1.34,0,0,1,.6-.46,2.24,2.24,0,0,1,.89-.17,1.86,1.86,0,0,1,1.21.38,1.35,1.35,0,0,1,.49,1h-.91a.7.7,0,0,0-.24-.48.93.93,0,0,0-.58-.17,1,1,0,0,0-.56.13.44.44,0,0,0-.19.36.38.38,0,0,0,.13.3,1.08,1.08,0,0,0,.31.19l.55.17a4.71,4.71,0,0,1,.78.26,1.5,1.5,0,0,1,.54.39,1,1,0,0,1,.23.68,1.13,1.13,0,0,1-.21.67,1.31,1.31,0,0,1-.59.46,2.05,2.05,0,0,1-.89.17A2.12,2.12,0,0,1,311.77,379.33Z" transform="translate(-109.54 -86.1)" style="fill:#fff"/><path d="M319.38,377.59H316a1.21,1.21,0,0,0,1.26,1.16,1.06,1.06,0,0,0,1-.61h1a1.93,1.93,0,0,1-.72,1,2.11,2.11,0,0,1-1.3.39,2.23,2.23,0,0,1-1.13-.28,2,2,0,0,1-.79-.8,2.45,2.45,0,0,1-.28-1.2,2.52,2.52,0,0,1,.27-1.19,2,2,0,0,1,.78-.8,2.46,2.46,0,0,1,2.26,0,1.88,1.88,0,0,1,.76.77,2.28,2.28,0,0,1,.27,1.13A3.19,3.19,0,0,1,319.38,377.59Zm-.92-.74a1,1,0,0,0-.36-.81,1.28,1.28,0,0,0-.87-.3,1.16,1.16,0,0,0-.81.3,1.26,1.26,0,0,0-.4.81Z" transform="translate(-109.54 -86.1)" style="fill:#fff"/></g><g id="b1b9d215-d76d-45e3-944d-6e02bce33f6e" data-name="chokelineclose"><circle cx="395.51" cy="316.66" r="14.17" transform="translate(-128.73 -60.51) rotate(-3.62)" style="fill:url(#f4bd1879-d020-4b4e-acd1-366c02bf7b21)"/><circle cx="395.51" cy="316.66" r="13.17" transform="translate(-128.73 -60.52) rotate(-3.62)" style="opacity:0.8;mix-blend-mode:multiply;fill:url(#e5587c13-c0fa-41be-8e24-a4dfb8d56709)"/><circle cx="285.97" cy="230.56" r="12.68" style="fill:url(#e9f121b3-4fd1-4e05-9825-41ffb2a6cfdd)"/><path d="M408.68,316.66a13.17,13.17,0,0,1-3.81,9.35,13.37,13.37,0,1,1,0-18.71A13.21,13.21,0,0,1,408.68,316.66Zm0,0a13,13,0,0,0-22.25-9.08,13,13,0,0,0,0,18.16,13,13,0,0,0,22.25-9.08Z" transform="translate(-109.54 -86.1)" style="fill:#fff"/><path d="M407.09,316.66c0,6.4-5.18,1.89-11.58,1.89s-11.58,4.51-11.58-1.89a11.58,11.58,0,1,1,23.16,0Z" transform="translate(-109.54 -86.1)" style="fill:url(#b536f300-1519-4bde-9e27-d3ad78c1a5c6)"/><path d="M384.92,314.94a2.73,2.73,0,0,1,1-1,2.8,2.8,0,0,1,1.43-.37A2.88,2.88,0,0,1,389,314a2.46,2.46,0,0,1,1,1.23h-1.1a1.41,1.41,0,0,0-.6-.65,1.69,1.69,0,0,0-.88-.22,2,2,0,0,0-1,.25,1.7,1.7,0,0,0-.67.71,2.46,2.46,0,0,0,0,2.16,1.73,1.73,0,0,0,.67.72,1.92,1.92,0,0,0,1,.25,1.69,1.69,0,0,0,.88-.22,1.41,1.41,0,0,0,.6-.65H390a2.46,2.46,0,0,1-1,1.23,2.87,2.87,0,0,1-1.57.43,2.93,2.93,0,0,1-1.44-.36,2.77,2.77,0,0,1-1-1,2.9,2.9,0,0,1-.38-1.47A2.86,2.86,0,0,1,384.92,314.94Z" transform="translate(-109.54 -86.1)" style="fill:#fff"/><path d="M392,313.27v5.92H391v-5.92Z" transform="translate(-109.54 -86.1)" style="fill:#fff"/><path d="M393.93,319a2,2,0,0,1-.79-.8,2.41,2.41,0,0,1-.29-1.19,2.38,2.38,0,0,1,.3-1.2,2.05,2.05,0,0,1,.8-.8,2.44,2.44,0,0,1,1.15-.28,2.4,2.4,0,0,1,1.14.28,2.14,2.14,0,0,1,.81.8,2.57,2.57,0,0,1,0,2.39,2.13,2.13,0,0,1-.83.8,2.37,2.37,0,0,1-1.15.29A2.26,2.26,0,0,1,393.93,319Zm1.79-.67a1.36,1.36,0,0,0,.5-.51,1.67,1.67,0,0,0,.19-.81,1.74,1.74,0,0,0-.18-.82,1.25,1.25,0,0,0-1.15-.66,1.33,1.33,0,0,0-.65.16,1.28,1.28,0,0,0-.48.5,1.87,1.87,0,0,0-.17.82,1.57,1.57,0,0,0,.36,1.1,1.23,1.23,0,0,0,.92.38A1.4,1.4,0,0,0,395.72,318.31Z" transform="translate(-109.54 -86.1)" style="fill:#fff"/><path d="M398.92,319.08a1.61,1.61,0,0,1-.65-.51,1.3,1.3,0,0,1-.26-.73H399a.68.68,0,0,0,.27.47,1,1,0,0,0,.61.19,1,1,0,0,0,.6-.15.46.46,0,0,0,.21-.38.39.39,0,0,0-.23-.37,4.14,4.14,0,0,0-.75-.26,6.35,6.35,0,0,1-.81-.27,1.29,1.29,0,0,1-.54-.39,1,1,0,0,1-.23-.69,1.1,1.1,0,0,1,.21-.65,1.45,1.45,0,0,1,.59-.46,2.29,2.29,0,0,1,.9-.17,1.86,1.86,0,0,1,1.21.38,1.36,1.36,0,0,1,.49,1h-.91a.67.67,0,0,0-.24-.47.87.87,0,0,0-.58-.18,1,1,0,0,0-.56.14.44.44,0,0,0-.19.36.36.36,0,0,0,.13.29.81.81,0,0,0,.31.19c.12.05.31.1.55.17s.58.18.78.26a1.38,1.38,0,0,1,.53.39,1.06,1.06,0,0,1,.24.68,1.11,1.11,0,0,1-.21.67,1.39,1.39,0,0,1-.59.47,2.21,2.21,0,0,1-.89.17A2.27,2.27,0,0,1,398.92,319.08Z" transform="translate(-109.54 -86.1)" style="fill:#fff"/><path d="M406.53,317.33h-3.37a1.21,1.21,0,0,0,1.26,1.17,1.08,1.08,0,0,0,1-.62h1a2,2,0,0,1-.72,1,2.13,2.13,0,0,1-1.3.39,2.24,2.24,0,0,1-1.13-.29,2,2,0,0,1-.79-.8,2.41,2.41,0,0,1-.28-1.19,2.53,2.53,0,0,1,.27-1.2,2.07,2.07,0,0,1,.78-.8,2.39,2.39,0,0,1,1.15-.28,2.18,2.18,0,0,1,1.11.28,1.92,1.92,0,0,1,.76.76,2.33,2.33,0,0,1,.27,1.13A3,3,0,0,1,406.53,317.33Zm-.92-.74a1.06,1.06,0,0,0-.36-.8,1.27,1.27,0,0,0-.87-.31,1.16,1.16,0,0,0-.81.3,1.21,1.21,0,0,0-.4.81Z" transform="translate(-109.54 -86.1)" style="fill:#fff"/></g><g id="a423743b-114e-468a-b580-9a3cc01430be" data-name="killlineclose"><circle cx="190.24" cy="315.3" r="14.17" transform="translate(-129.06 -73.47) rotate(-3.62)" style="fill:url(#a375ea0d-b0bb-4fa9-9149-6ff1c5caeaa2)"/><circle cx="190.24" cy="315.3" r="13.17" transform="translate(-129.05 -73.47) rotate(-3.62)" style="opacity:0.8;mix-blend-mode:multiply;fill:url(#e6489458-0839-4f98-987b-0025bab78758)"/><circle cx="80.69" cy="229.2" r="12.68" style="fill:url(#bf54fd04-f361-4d70-a62c-9b533063e97d)"/><path d="M203.41,315.3a13.24,13.24,0,0,1-3.82,9.35,13.36,13.36,0,0,1-18.91.2,13.38,13.38,0,0,1,0-19.1,13.37,13.37,0,0,1,18.91.19A13.24,13.24,0,0,1,203.41,315.3Zm0,0a13.21,13.21,0,0,0-3.9-9.28,13,13,0,0,0-18.35.2,13,13,0,0,0,9.08,22.06,13.05,13.05,0,0,0,9.27-3.71A13.21,13.21,0,0,0,203.41,315.3Z" transform="translate(-109.54 -86.1)" style="fill:#fff"/><path d="M201.82,315.3c0,6.39-5.19,1.89-11.58,1.89s-11.59,4.5-11.59-1.89a11.59,11.59,0,0,1,23.17,0Z" transform="translate(-109.54 -86.1)" style="fill:url(#f4ac6541-f201-43cf-baf0-c63baeef9941)"/><path d="M179.65,313.58a2.73,2.73,0,0,1,1-1,3,3,0,0,1,3,.08,2.49,2.49,0,0,1,1,1.23H183.6a1.52,1.52,0,0,0-.6-.65,1.75,1.75,0,0,0-.89-.22,1.92,1.92,0,0,0-1,.25,1.7,1.7,0,0,0-.67.71,2.46,2.46,0,0,0,0,2.16,1.79,1.79,0,0,0,.67.72,2,2,0,0,0,1,.25,1.75,1.75,0,0,0,.89-.22,1.52,1.52,0,0,0,.6-.65h1.09a2.49,2.49,0,0,1-1,1.23,3.07,3.07,0,0,1-3,.07,2.66,2.66,0,0,1-1-1,3,3,0,0,1,0-2.92Z" transform="translate(-109.54 -86.1)" style="fill:#fff"/><path d="M186.67,311.91v5.92h-.91v-5.92Z" transform="translate(-109.54 -86.1)" style="fill:#fff"/><path d="M188.65,317.62a2.09,2.09,0,0,1-.79-.8,2.42,2.42,0,0,1-.29-1.2,2.36,2.36,0,0,1,.3-1.19,2.08,2.08,0,0,1,.81-.8,2.46,2.46,0,0,1,2.28,0,2,2,0,0,1,.81.8,2.36,2.36,0,0,1,.3,1.19,2.28,2.28,0,0,1-.31,1.2,2.1,2.1,0,0,1-.82.8,2.4,2.4,0,0,1-1.16.28A2.26,2.26,0,0,1,188.65,317.62Zm1.79-.68a1.27,1.27,0,0,0,.5-.5,1.61,1.61,0,0,0,.19-.82,1.67,1.67,0,0,0-.18-.81,1.24,1.24,0,0,0-.49-.5,1.35,1.35,0,0,0-1.31,0,1.14,1.14,0,0,0-.47.5,1.67,1.67,0,0,0-.18.81,1.53,1.53,0,0,0,.36,1.1,1.22,1.22,0,0,0,.92.39A1.25,1.25,0,0,0,190.44,316.94Z" transform="translate(-109.54 -86.1)" style="fill:#fff"/><path d="M193.64,317.72a1.69,1.69,0,0,1-.65-.52,1.24,1.24,0,0,1-.26-.72h1a.63.63,0,0,0,.26.47,1,1,0,0,0,.62.19,1,1,0,0,0,.59-.15.46.46,0,0,0,.21-.38.38.38,0,0,0-.23-.37,4.14,4.14,0,0,0-.75-.26,6.35,6.35,0,0,1-.81-.27,1.29,1.29,0,0,1-.54-.39,1.05,1.05,0,0,1-.23-.7A1.07,1.07,0,0,1,193,314a1.42,1.42,0,0,1,.6-.46,2.24,2.24,0,0,1,.89-.17,1.84,1.84,0,0,1,1.21.38,1.36,1.36,0,0,1,.49,1h-.91a.59.59,0,0,0-.24-.47.87.87,0,0,0-.58-.18.93.93,0,0,0-.55.14.42.42,0,0,0-.2.36.41.41,0,0,0,.13.29,1.08,1.08,0,0,0,.31.19l.55.17a6.65,6.65,0,0,1,.79.26,1.55,1.55,0,0,1,.53.39,1,1,0,0,1,.23.68,1.11,1.11,0,0,1-.21.67,1.4,1.4,0,0,1-.59.47,2.21,2.21,0,0,1-.89.16A2.34,2.34,0,0,1,193.64,317.72Z" transform="translate(-109.54 -86.1)" style="fill:#fff"/><path d="M201.25,316h-3.37a1.23,1.23,0,0,0,1.26,1.17,1.07,1.07,0,0,0,1-.62h1a2,2,0,0,1-.72,1,2.11,2.11,0,0,1-1.3.38,2.23,2.23,0,0,1-1.13-.28,2.09,2.09,0,0,1-.79-.8,2.53,2.53,0,0,1-.28-1.2,2.41,2.41,0,0,1,.28-1.19,1.92,1.92,0,0,1,.77-.8,2.42,2.42,0,0,1,1.15-.28,2.23,2.23,0,0,1,1.11.27,1.94,1.94,0,0,1,.76.77,2.3,2.3,0,0,1,.27,1.13A3.09,3.09,0,0,1,201.25,316Zm-.92-.74a1,1,0,0,0-.36-.81,1.28,1.28,0,0,0-.87-.3,1.2,1.2,0,0,0-.81.3,1.31,1.31,0,0,0-.4.81Z" transform="translate(-109.54 -86.1)" style="fill:#fff"/></g><g id="be716a8b-f4b8-45d3-a374-caedd14b9e0f" data-name="blindramsclose"><circle cx="314.15" cy="255.38" r="14.17" transform="translate(-125.03 -65.77) rotate(-3.62)" style="fill:url(#a8199f59-1ef5-44a9-8963-4f6a0c57fe53)"/><circle cx="314.15" cy="255.38" r="13.17" transform="translate(-125.03 -65.77) rotate(-3.62)" style="opacity:0.8;mix-blend-mode:multiply;fill:url(#b5869202-9833-47c0-bc43-091c56ab7451)"/><circle cx="204.61" cy="169.28" r="12.68" style="fill:url(#f07acd3a-1b9e-45c7-9604-e624d10dcf99)"/><path d="M327.32,255.38a13.35,13.35,0,0,1-13.17,13.37A13.37,13.37,0,1,1,323.51,246,13.27,13.27,0,0,1,327.32,255.38Zm0,0a13,13,0,0,0-13.17-13,13,13,0,1,0,9.27,22.25A13.13,13.13,0,0,0,327.32,255.38Z" transform="translate(-109.54 -86.1)" style="fill:#fff"/><path d="M325.73,255.38c0,6.4-5.18,1.89-11.58,1.89s-11.58,4.51-11.58-1.89a11.58,11.58,0,0,1,23.16,0Z" transform="translate(-109.54 -86.1)" style="fill:url(#b41dfe1f-e14e-46d5-af5e-2564fe7ad79e)"/><path d="M303.56,253.66a2.73,2.73,0,0,1,1-1,3.05,3.05,0,0,1,3,.07,2.49,2.49,0,0,1,1,1.24h-1.1a1.43,1.43,0,0,0-.6-.66,1.8,1.8,0,0,0-.89-.21,2,2,0,0,0-1,.24,1.82,1.82,0,0,0-.68.72,2.27,2.27,0,0,0-.24,1.08,2.32,2.32,0,0,0,.24,1.08,1.86,1.86,0,0,0,.68.71,1.91,1.91,0,0,0,1,.25,1.8,1.8,0,0,0,.89-.21,1.48,1.48,0,0,0,.6-.66h1.1a2.46,2.46,0,0,1-1,1.23,3.07,3.07,0,0,1-3,.07,2.77,2.77,0,0,1-1-1,3,3,0,0,1,0-2.93Z" transform="translate(-109.54 -86.1)" style="fill:#fff"/><path d="M310.58,252v5.92h-.91V252Z" transform="translate(-109.54 -86.1)" style="fill:#fff"/><path d="M312.57,257.71a2,2,0,0,1-.79-.8,2.37,2.37,0,0,1-.29-1.2,2.41,2.41,0,0,1,.29-1.19,2,2,0,0,1,.81-.8,2.48,2.48,0,0,1,2.29,0,2,2,0,0,1,.81.8,2.41,2.41,0,0,1,.29,1.19,2.34,2.34,0,0,1-.3,1.19,2.09,2.09,0,0,1-.83.81,2.47,2.47,0,0,1-1.15.28A2.34,2.34,0,0,1,312.57,257.71Zm1.79-.68a1.33,1.33,0,0,0,.5-.5,1.74,1.74,0,0,0,.19-.82,1.57,1.57,0,0,0-.19-.81,1.22,1.22,0,0,0-.48-.5,1.41,1.41,0,0,0-.66-.17,1.31,1.31,0,0,0-.65.17,1.22,1.22,0,0,0-.48.5,1.67,1.67,0,0,0-.17.81,1.57,1.57,0,0,0,.36,1.1,1.2,1.2,0,0,0,.92.39A1.41,1.41,0,0,0,314.36,257Z" transform="translate(-109.54 -86.1)" style="fill:#fff"/><path d="M317.56,257.8a1.63,1.63,0,0,1-.66-.51,1.28,1.28,0,0,1-.25-.72h.94a.66.66,0,0,0,.27.46,1,1,0,0,0,.61.19,1,1,0,0,0,.6-.15.43.43,0,0,0,.21-.38.38.38,0,0,0-.24-.36,4.19,4.19,0,0,0-.75-.27c-.33-.09-.59-.18-.8-.26a1.5,1.5,0,0,1-.54-.39,1,1,0,0,1-.23-.7,1.07,1.07,0,0,1,.21-.64,1.31,1.31,0,0,1,.59-.46,2.13,2.13,0,0,1,.9-.17,1.81,1.81,0,0,1,1.21.38,1.37,1.37,0,0,1,.49,1h-.91a.7.7,0,0,0-.24-.47.9.9,0,0,0-.59-.17,1,1,0,0,0-.55.13.41.41,0,0,0-.19.36.38.38,0,0,0,.13.3,1,1,0,0,0,.31.19l.54.17a4.86,4.86,0,0,1,.79.26,1.36,1.36,0,0,1,.53.39,1,1,0,0,1,.24.68,1.13,1.13,0,0,1-.21.67,1.45,1.45,0,0,1-.59.46,2.21,2.21,0,0,1-.89.17A2.12,2.12,0,0,1,317.56,257.8Z" transform="translate(-109.54 -86.1)" style="fill:#fff"/><path d="M325.17,256.05H321.8a1.24,1.24,0,0,0,.39.85,1.26,1.26,0,0,0,.87.32,1.07,1.07,0,0,0,1-.61h1a2,2,0,0,1-.72,1,2.13,2.13,0,0,1-1.3.39,2.38,2.38,0,0,1-1.14-.28,2.07,2.07,0,0,1-.78-.8,2.47,2.47,0,0,1-.28-1.2,2.59,2.59,0,0,1,.27-1.2,1.92,1.92,0,0,1,.78-.79,2.25,2.25,0,0,1,1.15-.28,2.28,2.28,0,0,1,1.11.27,2,2,0,0,1,.76.76,2.34,2.34,0,0,1,.27,1.14A2.94,2.94,0,0,1,325.17,256.05Zm-.92-.73a1.06,1.06,0,0,0-.36-.81,1.31,1.31,0,0,0-.87-.3,1.16,1.16,0,0,0-.81.3,1.21,1.21,0,0,0-.4.81Z" transform="translate(-109.54 -86.1)" style="fill:#fff"/></g><g id="f28b3a08-b53d-4fdb-a58a-7466191a6138" data-name="piperamsupclose"><circle cx="315.17" cy="199.55" r="14.17" transform="translate(-121.5 -65.81) rotate(-3.62)" style="fill:url(#e7b07be7-84be-4051-8ade-8a245ddf96b6)"/><circle cx="315.17" cy="199.55" r="13.17" transform="translate(-121.5 -65.82) rotate(-3.62)" style="opacity:0.8;mix-blend-mode:multiply;fill:url(#f37547c0-1fed-4919-8139-fcc9c05cf0e7)"/><circle cx="205.63" cy="113.45" r="12.68" style="fill:url(#e4f44a02-2b71-431f-9307-9c5060a8ac0e)"/><path d="M328.34,199.55a13.19,13.19,0,0,1-3.81,9.36,13.37,13.37,0,0,1-22.92-9.36,13.36,13.36,0,0,1,22.92-9.35A13.18,13.18,0,0,1,328.34,199.55Zm0,0a13,13,0,0,0-13.17-13,13,13,0,1,0,9.28,22.25A13.16,13.16,0,0,0,328.34,199.55Z" transform="translate(-109.54 -86.1)" style="fill:#fff"/><path d="M326.75,199.55c0,6.4-5.18,1.89-11.58,1.89s-11.58,4.51-11.58-1.89a11.58,11.58,0,1,1,23.16,0Z" transform="translate(-109.54 -86.1)" style="fill:url(#f5e1cde9-1bee-422e-90dd-9069738da260)"/><path d="M304.58,197.83a2.73,2.73,0,0,1,1-1,3.05,3.05,0,0,1,3,.07,2.44,2.44,0,0,1,1,1.24h-1.1a1.43,1.43,0,0,0-.6-.66,1.8,1.8,0,0,0-.89-.21,2,2,0,0,0-1,.24,1.82,1.82,0,0,0-.68.72,2.27,2.27,0,0,0-.24,1.08,2.32,2.32,0,0,0,.24,1.08,1.86,1.86,0,0,0,.68.71,1.91,1.91,0,0,0,1,.25,1.8,1.8,0,0,0,.89-.21,1.48,1.48,0,0,0,.6-.66h1.1a2.42,2.42,0,0,1-1,1.23,3,3,0,0,1-3,.07,2.77,2.77,0,0,1-1-1,3.09,3.09,0,0,1,0-2.93Z" transform="translate(-109.54 -86.1)" style="fill:#fff"/><path d="M311.61,196.17v5.92h-.92v-5.92Z" transform="translate(-109.54 -86.1)" style="fill:#fff"/><path d="M313.59,201.88a2,2,0,0,1-.79-.8,2.37,2.37,0,0,1-.29-1.2,2.41,2.41,0,0,1,.29-1.19,2,2,0,0,1,.81-.8,2.33,2.33,0,0,1,1.15-.28,2.29,2.29,0,0,1,1.14.28,2,2,0,0,1,.81.8,2.31,2.31,0,0,1,.29,1.19,2.34,2.34,0,0,1-.3,1.19,2.09,2.09,0,0,1-.83.81,2.47,2.47,0,0,1-1.15.28A2.34,2.34,0,0,1,313.59,201.88Zm1.79-.68a1.33,1.33,0,0,0,.5-.5,1.74,1.74,0,0,0,.19-.82,1.57,1.57,0,0,0-.19-.81,1.22,1.22,0,0,0-.48-.5,1.38,1.38,0,0,0-.66-.17,1.34,1.34,0,0,0-.65.17,1.22,1.22,0,0,0-.48.5,1.8,1.8,0,0,0-.17.81,1.57,1.57,0,0,0,.36,1.1,1.2,1.2,0,0,0,.92.39A1.41,1.41,0,0,0,315.38,201.2Z" transform="translate(-109.54 -86.1)" style="fill:#fff"/><path d="M318.58,202a1.55,1.55,0,0,1-.66-.51,1.28,1.28,0,0,1-.25-.72h.94a.66.66,0,0,0,.27.46,1,1,0,0,0,.61.19,1,1,0,0,0,.6-.15.43.43,0,0,0,.21-.38.38.38,0,0,0-.24-.36,4.33,4.33,0,0,0-.74-.27c-.33-.09-.6-.18-.81-.26a1.5,1.5,0,0,1-.54-.39,1.05,1.05,0,0,1-.23-.7,1.07,1.07,0,0,1,.21-.64,1.37,1.37,0,0,1,.59-.46,2.13,2.13,0,0,1,.9-.17,1.81,1.81,0,0,1,1.21.38,1.34,1.34,0,0,1,.49,1h-.91a.7.7,0,0,0-.24-.47.89.89,0,0,0-.58-.17,1,1,0,0,0-.56.13.41.41,0,0,0-.19.36.38.38,0,0,0,.13.3,1,1,0,0,0,.31.19l.54.17a4.86,4.86,0,0,1,.79.26,1.29,1.29,0,0,1,.53.39,1,1,0,0,1,.24.68,1.13,1.13,0,0,1-.21.67,1.45,1.45,0,0,1-.59.46,2.21,2.21,0,0,1-.89.17A2.12,2.12,0,0,1,318.58,202Z" transform="translate(-109.54 -86.1)" style="fill:#fff"/><path d="M326.19,200.22h-3.37a1.24,1.24,0,0,0,.39.85,1.28,1.28,0,0,0,.87.32,1.07,1.07,0,0,0,1-.61h1a2,2,0,0,1-.72,1,2.13,2.13,0,0,1-1.3.39,2.4,2.4,0,0,1-1.14-.28,2.07,2.07,0,0,1-.78-.8,2.47,2.47,0,0,1-.28-1.2,2.59,2.59,0,0,1,.27-1.2,2,2,0,0,1,.78-.79,2.25,2.25,0,0,1,1.15-.28,2.28,2.28,0,0,1,1.11.27,2,2,0,0,1,.76.76,2.34,2.34,0,0,1,.27,1.14A2.94,2.94,0,0,1,326.19,200.22Zm-.92-.73a1.06,1.06,0,0,0-.36-.81,1.31,1.31,0,0,0-.87-.3,1.16,1.16,0,0,0-.81.3,1.21,1.21,0,0,0-.4.81Z" transform="translate(-109.54 -86.1)" style="fill:#fff"/></g><g id="f6695c4b-57bc-43a6-a5a1-57c2ca3d2dc2" data-name="annularclose"><circle cx="300.19" cy="126.7" r="14.17" transform="translate(-116.94 -66.91) rotate(-3.62)" style="fill:url(#a0d25cb5-20a4-43ce-9b75-95e77a52a9a8)"/><circle cx="300.19" cy="126.7" r="13.17" transform="translate(-116.94 -66.91) rotate(-3.62)" style="opacity:0.8;mix-blend-mode:multiply;fill:url(#a100e338-d3ee-4f44-821a-26ff253c3fea)"/><circle cx="190.65" cy="40.6" r="12.68" style="fill:url(#bfdcc47a-fbe9-449b-b099-60070b7eeca8)"/><path d="M313.37,126.7a13.24,13.24,0,0,1-3.82,9.36,13.37,13.37,0,0,1-18.91.19,13.38,13.38,0,0,1,0-19.1,13.36,13.36,0,0,1,18.91.2A13.22,13.22,0,0,1,313.37,126.7Zm0,0a13.21,13.21,0,0,0-3.9-9.27,13,13,0,0,0-18.35.19,13,13,0,0,0,0,18.16,13,13,0,0,0,18.36.2A13.21,13.21,0,0,0,313.37,126.7Z" transform="translate(-109.54 -86.1)" style="fill:#fff"/><path d="M311.77,126.7c0,6.4-5.18,1.89-11.58,1.89s-11.58,4.51-11.58-1.89a11.58,11.58,0,0,1,23.16,0Z" transform="translate(-109.54 -86.1)" style="fill:url(#ba2654ed-0957-4b4e-bb74-6f1612375019)"/><path d="M289.61,125a2.63,2.63,0,0,1,1-1,2.9,2.9,0,0,1,1.43-.37,2.94,2.94,0,0,1,1.58.44,2.47,2.47,0,0,1,1,1.24h-1.1a1.39,1.39,0,0,0-.6-.66,1.79,1.79,0,0,0-.88-.22,2,2,0,0,0-1,.25,1.76,1.76,0,0,0-.67.71,2.46,2.46,0,0,0,0,2.16,1.73,1.73,0,0,0,.67.72,1.92,1.92,0,0,0,1,.25,1.79,1.79,0,0,0,.88-.21,1.48,1.48,0,0,0,.6-.66h1.1a2.49,2.49,0,0,1-1,1.23,3.09,3.09,0,0,1-3,.07,2.67,2.67,0,0,1-1-1,3,3,0,0,1,0-2.93Z" transform="translate(-109.54 -86.1)" style="fill:#fff"/><path d="M296.63,123.32v5.92h-.92v-5.92Z" transform="translate(-109.54 -86.1)" style="fill:#fff"/><path d="M298.61,129a2,2,0,0,1-.79-.8,2.41,2.41,0,0,1-.29-1.19,2.31,2.31,0,0,1,.3-1.19,1.93,1.93,0,0,1,.8-.8,2.33,2.33,0,0,1,1.15-.28,2.29,2.29,0,0,1,1.14.28,2,2,0,0,1,.81.8A2.31,2.31,0,0,1,302,127a2.34,2.34,0,0,1-.31,1.19,2.06,2.06,0,0,1-.83.8,2.37,2.37,0,0,1-1.15.29A2.26,2.26,0,0,1,298.61,129Zm1.79-.67a1.29,1.29,0,0,0,.5-.51,1.57,1.57,0,0,0,.19-.81,1.67,1.67,0,0,0-.18-.81,1.31,1.31,0,0,0-.49-.5,1.27,1.27,0,0,0-.66-.17,1.24,1.24,0,0,0-.65.17,1.22,1.22,0,0,0-.48.5,1.8,1.8,0,0,0-.17.81,1.57,1.57,0,0,0,.36,1.1,1.2,1.2,0,0,0,.92.39A1.41,1.41,0,0,0,300.4,128.35Z" transform="translate(-109.54 -86.1)" style="fill:#fff"/><path d="M303.6,129.12a1.6,1.6,0,0,1-.65-.51,1.3,1.3,0,0,1-.26-.73h.94a.66.66,0,0,0,.27.47,1,1,0,0,0,.61.19,1,1,0,0,0,.6-.15.44.44,0,0,0,.21-.38.4.4,0,0,0-.23-.37,5.1,5.1,0,0,0-.75-.26c-.33-.09-.6-.18-.81-.26a1.41,1.41,0,0,1-.54-.4,1,1,0,0,1-.23-.69,1.1,1.1,0,0,1,.21-.65,1.5,1.5,0,0,1,.6-.46,2.21,2.21,0,0,1,.89-.16,1.81,1.81,0,0,1,1.21.38,1.33,1.33,0,0,1,.49,1h-.91a.7.7,0,0,0-.24-.47.87.87,0,0,0-.58-.18,1,1,0,0,0-.56.14.44.44,0,0,0-.19.36.38.38,0,0,0,.13.3.87.87,0,0,0,.31.18c.12,0,.31.11.55.18a4.71,4.71,0,0,1,.78.26,1.36,1.36,0,0,1,.54.38,1.13,1.13,0,0,1,.23.68,1.16,1.16,0,0,1-.21.68,1.45,1.45,0,0,1-.59.46,2.21,2.21,0,0,1-.89.17A2.12,2.12,0,0,1,303.6,129.12Z" transform="translate(-109.54 -86.1)" style="fill:#fff"/><path d="M311.21,127.37h-3.37a1.26,1.26,0,0,0,.39.85,1.28,1.28,0,0,0,.87.32,1.08,1.08,0,0,0,1-.62h1a2,2,0,0,1-.72,1,2.11,2.11,0,0,1-1.3.39A2.24,2.24,0,0,1,308,129a2,2,0,0,1-.79-.8,2.41,2.41,0,0,1-.28-1.19,2.59,2.59,0,0,1,.27-1.2A2,2,0,0,1,308,125a2.46,2.46,0,0,1,2.26,0,1.85,1.85,0,0,1,.76.76,2.33,2.33,0,0,1,.27,1.13A3,3,0,0,1,311.21,127.37Zm-.92-.73a1.06,1.06,0,0,0-.36-.81,1.3,1.3,0,0,0-.87-.31,1.16,1.16,0,0,0-.81.3,1.26,1.26,0,0,0-.4.82Z" transform="translate(-109.54 -86.1)" style="fill:#fff"/></g><g id="b574ab2b-91a4-44d2-9103-53a7b504dc8e" data-name="blindramsopen"><circle cx="210.96" cy="255" r="14.17" transform="translate(-125.21 -72.28) rotate(-3.62)" style="fill:url(#ec9d4d23-f83b-49db-a001-1e2c7a844366)"/><circle cx="210.96" cy="255" r="13.17" transform="translate(-125.21 -72.28) rotate(-3.62)" style="opacity:0.8;mix-blend-mode:multiply;fill:url(#aa6aec1a-1b71-4f35-9cec-7f17aed33964)"/><circle cx="101.42" cy="168.9" r="12.68" style="fill:url(#a6e8db5a-bc02-4b05-8520-19f25c0e0614)"/><path d="M224.13,255a13.26,13.26,0,0,1-3.82,9.36,13.36,13.36,0,0,1-18.9.19,13.35,13.35,0,0,1,0-19.1,13.36,13.36,0,0,1,18.9.19A13.26,13.26,0,0,1,224.13,255Zm0,0A13,13,0,0,0,211,242a13,13,0,0,0-9.08,3.9,13,13,0,0,0,0,18.16,13,13,0,0,0,18.35.19A13.17,13.17,0,0,0,224.13,255Z" transform="translate(-109.54 -86.1)" style="fill:#fff"/><path d="M222.54,255c0,6.4-5.19,1.89-11.58,1.89s-11.58,4.51-11.58-1.89a11.58,11.58,0,1,1,23.16,0Z" transform="translate(-109.54 -86.1)" style="fill:url(#a3424dc0-4a8e-4a60-968b-58314988ede5)"/><path d="M201.8,257.23a2.75,2.75,0,0,1-1-1,3,3,0,0,1,0-2.93,2.73,2.73,0,0,1,1-1,2.95,2.95,0,0,1,2.86,0,2.7,2.7,0,0,1,1,1,3.09,3.09,0,0,1,0,2.93,2.73,2.73,0,0,1-1,1,3,3,0,0,1-2.86,0Zm2.41-.68a1.73,1.73,0,0,0,.67-.72,2.28,2.28,0,0,0,.25-1.09,2.21,2.21,0,0,0-.25-1.08,1.7,1.7,0,0,0-.67-.71,2.07,2.07,0,0,0-2,0,1.79,1.79,0,0,0-.68.71,2.32,2.32,0,0,0-.24,1.08,2.39,2.39,0,0,0,.24,1.09,1.82,1.82,0,0,0,.68.72,2.07,2.07,0,0,0,2,0Z" transform="translate(-109.54 -86.1)" style="fill:#fff"/><path d="M208.5,253.26a1.94,1.94,0,0,1,.91-.21,2,2,0,0,1,1.05.29,2,2,0,0,1,.75.79,2.53,2.53,0,0,1,.27,1.18,2.57,2.57,0,0,1-.27,1.19,2,2,0,0,1-1.8,1.11,1.87,1.87,0,0,1-.9-.21,1.9,1.9,0,0,1-.64-.51v2.74H207v-6.5h.91v.64A2,2,0,0,1,208.5,253.26Zm1.86,1.26a1.24,1.24,0,0,0-.49-.5,1.3,1.3,0,0,0-.66-.17,1.24,1.24,0,0,0-.65.17,1.36,1.36,0,0,0-.5.51,1.58,1.58,0,0,0-.19.8,1.54,1.54,0,0,0,.19.79,1.32,1.32,0,0,0,.5.52,1.24,1.24,0,0,0,.65.17,1.31,1.31,0,0,0,.66-.18,1.3,1.3,0,0,0,.49-.52,1.6,1.6,0,0,0,.19-.8A1.54,1.54,0,0,0,210.36,254.52Z" transform="translate(-109.54 -86.1)" style="fill:#fff"/><path d="M216.39,255.67H213a1.23,1.23,0,0,0,1.26,1.17,1.07,1.07,0,0,0,1-.62h1a2,2,0,0,1-.72,1,2.11,2.11,0,0,1-1.3.39,2.24,2.24,0,0,1-1.13-.29,2,2,0,0,1-.79-.8,2.69,2.69,0,0,1,0-2.39,2,2,0,0,1,.77-.8,2.39,2.39,0,0,1,1.15-.28,2.23,2.23,0,0,1,1.11.28,1.85,1.85,0,0,1,.76.76,2.33,2.33,0,0,1,.27,1.13A3,3,0,0,1,216.39,255.67Zm-.92-.74a1,1,0,0,0-.36-.8,1.24,1.24,0,0,0-.87-.31,1.18,1.18,0,0,0-.81.3,1.26,1.26,0,0,0-.4.81Z" transform="translate(-109.54 -86.1)" style="fill:#fff"/><path d="M220.48,253.27a1.58,1.58,0,0,1,.64.64,2.13,2.13,0,0,1,.23,1v2.6h-.9v-2.46a1.28,1.28,0,0,0-.3-.91,1,1,0,0,0-.81-.31,1.06,1.06,0,0,0-.81.31,1.28,1.28,0,0,0-.3.91v2.46h-.91v-4.4h.91v.5a1.51,1.51,0,0,1,.57-.42,1.73,1.73,0,0,1,.74-.16A2.07,2.07,0,0,1,220.48,253.27Z" transform="translate(-109.54 -86.1)" style="fill:#fff"/></g><g id="affdc8ec-f915-4f18-b481-9f2f31850e94" data-name="killlineopen"><circle cx="127.98" cy="316.28" r="14.17" transform="translate(-129.24 -77.39) rotate(-3.62)" style="fill:url(#a1db22bd-b6e5-49da-b5e3-1f858d4e02c2)"/><circle cx="127.98" cy="316.28" r="13.17" transform="translate(-129.24 -77.39) rotate(-3.62)" style="opacity:0.8;mix-blend-mode:multiply;fill:url(#a77545c7-6e03-4a0c-a865-8efde117f94a)"/><circle cx="18.44" cy="230.18" r="12.68" style="fill:url(#a57912b4-b97d-4364-a6f2-7d9c3ba36e70)"/><path d="M141.15,316.28A13.37,13.37,0,0,1,128,329.64a13.35,13.35,0,0,1-13.56-13.36,13.56,13.56,0,0,1,4-9.56,13.39,13.39,0,0,1,18.91.2A13.27,13.27,0,0,1,141.15,316.28Zm0,0a13,13,0,0,0-22.25-9.08A13,13,0,0,0,128,329.25a13,13,0,0,0,13.17-13Z" transform="translate(-109.54 -86.1)" style="fill:#fff"/><path d="M139.56,316.28c0,6.39-5.18,1.88-11.58,1.88s-11.58,4.51-11.58-1.88a11.58,11.58,0,0,1,23.16,0Z" transform="translate(-109.54 -86.1)" style="fill:url(#f5928056-b9b0-4814-9eb0-6c2bfff01f9d)"/><path d="M118.82,318.5a2.63,2.63,0,0,1-1-1,3,3,0,0,1,0-2.94,2.7,2.7,0,0,1,1-1,3,3,0,0,1,2.86,0,2.7,2.7,0,0,1,1,1,3,3,0,0,1,0,2.94,2.63,2.63,0,0,1-1,1,2.95,2.95,0,0,1-2.86,0Zm2.41-.68a1.69,1.69,0,0,0,.68-.72,2.55,2.55,0,0,0,0-2.16,1.73,1.73,0,0,0-.68-.71,2.07,2.07,0,0,0-2,0,1.65,1.65,0,0,0-.67.71,2.46,2.46,0,0,0,0,2.16,1.62,1.62,0,0,0,.67.72,2,2,0,0,0,2,0Z" transform="translate(-109.54 -86.1)" style="fill:#fff"/><path d="M125.53,314.54a1.87,1.87,0,0,1,.9-.21,2,2,0,0,1,1,.29,1.91,1.91,0,0,1,.75.79,2.48,2.48,0,0,1,.27,1.18,2.5,2.5,0,0,1-.27,1.18,2,2,0,0,1-.75.82,1.93,1.93,0,0,1-1,.29,2,2,0,0,1-.9-.2,2.18,2.18,0,0,1-.64-.51v2.74H124V314.4h.91v.65A2,2,0,0,1,125.53,314.54Zm1.86,1.26a1.44,1.44,0,0,0-.5-.51,1.41,1.41,0,0,0-.66-.17,1.25,1.25,0,0,0-.65.18,1.36,1.36,0,0,0-.5.51,1.76,1.76,0,0,0,0,1.59,1.32,1.32,0,0,0,.5.52,1.34,1.34,0,0,0,.65.17,1.31,1.31,0,0,0,.66-.18,1.39,1.39,0,0,0,.5-.52,1.71,1.71,0,0,0,.18-.8A1.62,1.62,0,0,0,127.39,315.8Z" transform="translate(-109.54 -86.1)" style="fill:#fff"/><path d="M133.41,317h-3.36a1.15,1.15,0,0,0,.39.84,1.2,1.2,0,0,0,.86.33,1.07,1.07,0,0,0,1-.62h1a2.07,2.07,0,0,1-.73,1,2.17,2.17,0,0,1-1.3.38,2.23,2.23,0,0,1-1.13-.28,2,2,0,0,1-.78-.8,2.65,2.65,0,0,1,0-2.39,1.92,1.92,0,0,1,.77-.8,2.3,2.3,0,0,1,1.15-.28,2.23,2.23,0,0,1,1.11.27,1.88,1.88,0,0,1,.76.77,2.28,2.28,0,0,1,.28,1.13A3.14,3.14,0,0,1,133.41,317Zm-.92-.74a1,1,0,0,0-.36-.81,1.28,1.28,0,0,0-.87-.3,1.2,1.2,0,0,0-.81.3,1.31,1.31,0,0,0-.4.81Z" transform="translate(-109.54 -86.1)" style="fill:#fff"/><path d="M137.5,314.55a1.47,1.47,0,0,1,.64.64,2,2,0,0,1,.23,1v2.6h-.9v-2.46a1.26,1.26,0,0,0-.3-.91,1,1,0,0,0-.8-.32,1.08,1.08,0,0,0-.82.32,1.26,1.26,0,0,0-.3.91v2.46h-.91V314.4h.91v.51a1.5,1.5,0,0,1,.58-.43,1.81,1.81,0,0,1,.74-.15A1.93,1.93,0,0,1,137.5,314.55Z" transform="translate(-109.54 -86.1)" style="fill:#fff"/></g><path d="M240.84,202.53a1.58,1.58,0,0,1-1.46-1.66V194a1.58,1.58,0,0,1,1.46-1.67H287a1.58,1.58,0,0,1,1.46,1.67v6.88a1.58,1.58,0,0,1-1.46,1.66Z" transform="translate(-109.54 -86.1)" style="fill:url(#a6069747-adab-4bf1-9055-e205053a9712)"/><path d="M288.2,200.87A1.26,1.26,0,0,1,287,202.2H240.84a1.26,1.26,0,0,1-1.17-1.33V194a1.27,1.27,0,0,1,1.17-1.34H287A1.27,1.27,0,0,1,288.2,194Z" transform="translate(-109.54 -86.1)" style="fill:url(#a5aa6686-b7ed-4ad2-866d-8bc7a957da2f)"/><ellipse cx="132.13" cy="111.37" rx="1.08" ry="1.22" style="fill:#595a5c"/><path d="M242.37,196.52a1.35,1.35,0,0,1,0,1.73,1,1,0,0,1-1.53,0,1.35,1.35,0,0,1,0-1.73A1,1,0,0,1,242.37,196.52Z" transform="translate(-109.54 -86.1)" style="fill:url(#e5a7c27f-8412-4629-b501-84aa7c9a5ae6)"/><path d="M242.38,196.54a7.63,7.63,0,0,1-.7.94,6.92,6.92,0,0,1-.82.78,6.94,6.94,0,0,1,.69-.94A6.55,6.55,0,0,1,242.38,196.54Z" transform="translate(-109.54 -86.1)" style="fill:#d8d9d9"/><path d="M242.38,196.54a8,8,0,0,1-.7.93,8.89,8.89,0,0,1-.82.79,8,8,0,0,1,.7-.93A7.62,7.62,0,0,1,242.38,196.54Z" transform="translate(-109.54 -86.1)" style="fill:#595a5c"/><ellipse cx="176.75" cy="111.37" rx="1.08" ry="1.22" style="fill:#595a5c"/><path d="M287,196.52a1.32,1.32,0,0,1,0,1.73,1,1,0,0,1-1.52,0,1.35,1.35,0,0,1,0-1.73A1,1,0,0,1,287,196.52Z" transform="translate(-109.54 -86.1)" style="fill:url(#fb48c945-a1ce-4913-9ed3-c821b24f5e2d)"/><path d="M287,196.54a7.63,7.63,0,0,1-.7.94,6.55,6.55,0,0,1-.83.78,7.63,7.63,0,0,1,.7-.94A6.55,6.55,0,0,1,287,196.54Z" transform="translate(-109.54 -86.1)" style="fill:#d8d9d9"/><path d="M287,196.54a9,9,0,0,1-.71.93,7.62,7.62,0,0,1-.82.79,9,9,0,0,1,.71-.93A7.62,7.62,0,0,1,287,196.54Z" transform="translate(-109.54 -86.1)" style="fill:#595a5c"/><path d="M244.2,131.43a1.27,1.27,0,0,1-1.17-1.34V124.6a1.26,1.26,0,0,1,1.17-1.33h36.92a1.25,1.25,0,0,1,1.16,1.33v5.49a1.26,1.26,0,0,1-1.16,1.34Z" transform="translate(-109.54 -86.1)" style="fill:url(#e697ff82-6af5-49d4-86d2-b671872e8155)"/><path d="M282.05,130.09a1,1,0,0,1-.93,1.07H244.2a1,1,0,0,1-.93-1.07V124.6a1,1,0,0,1,.93-1.07h36.92a1,1,0,0,1,.93,1.07Z" transform="translate(-109.54 -86.1)" style="fill:url(#bc966141-6f19-4ded-9fdf-f28645d7878f)"/><ellipse cx="135.33" cy="41.28" rx="0.86" ry="0.98" style="fill:#595a5c"/><path d="M245.42,126.62a1.06,1.06,0,0,1,0,1.38.78.78,0,0,1-1.22,0,1.09,1.09,0,0,1,0-1.38A.8.8,0,0,1,245.42,126.62Z" transform="translate(-109.54 -86.1)" style="fill:url(#aec3573e-7d60-4f70-b772-f57cb6a0d326)"/><path d="M245.43,126.63a5.42,5.42,0,0,1-.56.75,4.24,4.24,0,0,1-.66.63,5.42,5.42,0,0,1,.56-.75A4.91,4.91,0,0,1,245.43,126.63Z" transform="translate(-109.54 -86.1)" style="fill:#d8d9d9"/><path d="M245.43,126.63a6.61,6.61,0,0,1-.56.75,5.72,5.72,0,0,1-.66.63,7.1,7.1,0,0,1,.56-.74A6.47,6.47,0,0,1,245.43,126.63Z" transform="translate(-109.54 -86.1)" style="fill:#595a5c"/><ellipse cx="170.99" cy="41.28" rx="0.86" ry="0.98" style="fill:#595a5c"/><path d="M281.08,126.62a1.06,1.06,0,0,1,0,1.38.78.78,0,0,1-1.22,0,1.09,1.09,0,0,1,0-1.38A.8.8,0,0,1,281.08,126.62Z" transform="translate(-109.54 -86.1)" style="fill:url(#afe172cb-116e-49a3-88b4-f840a21d3dba)"/><path d="M281.09,126.63a5.84,5.84,0,0,1-.55.75,4.55,4.55,0,0,1-.67.63,5.42,5.42,0,0,1,.56-.75A4.91,4.91,0,0,1,281.09,126.63Z" transform="translate(-109.54 -86.1)" style="fill:#d8d9d9"/><path d="M281.09,126.63a6.61,6.61,0,0,1-.56.75,5.72,5.72,0,0,1-.66.63,6.48,6.48,0,0,1,.57-.74A5.87,5.87,0,0,1,281.09,126.63Z" transform="translate(-109.54 -86.1)" style="fill:#595a5c"/><path d="M240.24,259.21a1.55,1.55,0,0,1-1.49-1.61V251a1.56,1.56,0,0,1,1.49-1.61h47.13a1.56,1.56,0,0,1,1.5,1.61v6.65a1.56,1.56,0,0,1-1.5,1.61Z" transform="translate(-109.54 -86.1)" style="fill:url(#ba00680b-640f-4441-ad90-d7b4a32c5667)"/><path d="M288.57,257.6a1.25,1.25,0,0,1-1.2,1.29H240.24a1.25,1.25,0,0,1-1.19-1.29V251a1.24,1.24,0,0,1,1.19-1.28h47.13a1.24,1.24,0,0,1,1.2,1.28Z" transform="translate(-109.54 -86.1)" style="fill:url(#b36962b5-174d-425f-a44e-81feb86f84d7)"/><ellipse cx="131.55" cy="168.22" rx="1.1" ry="1.18" style="fill:#595a5c"/><path d="M241.8,253.41a1.23,1.23,0,0,1,0,1.66,1,1,0,0,1-1.55,0,1.23,1.23,0,0,1,0-1.66A1,1,0,0,1,241.8,253.41Z" transform="translate(-109.54 -86.1)" style="fill:url(#bea24f1a-38e6-42ab-85f4-ca5ceafe68ad)"/><path d="M241.81,253.42a7.4,7.4,0,0,1-.71.91,6.74,6.74,0,0,1-.84.76,7,7,0,0,1,.7-.91A6.4,6.4,0,0,1,241.81,253.42Z" transform="translate(-109.54 -86.1)" style="fill:#d8d9d9"/><path d="M241.81,253.42a8.72,8.72,0,0,1-.72.9,7.9,7.9,0,0,1-.83.77,8.17,8.17,0,0,1,.71-.9A7.41,7.41,0,0,1,241.81,253.42Z" transform="translate(-109.54 -86.1)" style="fill:#595a5c"/><ellipse cx="177.08" cy="168.22" rx="1.1" ry="1.18" style="fill:#595a5c"/><path d="M287.33,253.41a1.23,1.23,0,0,1,0,1.66,1,1,0,0,1-1.56,0,1.25,1.25,0,0,1,0-1.66A1,1,0,0,1,287.33,253.41Z" transform="translate(-109.54 -86.1)" style="fill:url(#b0931fd6-aac4-4058-b14b-d49867566360)"/><path d="M287.34,253.42a7.4,7.4,0,0,1-.71.91,6.74,6.74,0,0,1-.84.76,7,7,0,0,1,.7-.91A6.4,6.4,0,0,1,287.34,253.42Z" transform="translate(-109.54 -86.1)" style="fill:#d8d9d9"/><path d="M287.34,253.42a8.72,8.72,0,0,1-.72.9,7.9,7.9,0,0,1-.83.77,8.17,8.17,0,0,1,.71-.9A7.41,7.41,0,0,1,287.34,253.42Z" transform="translate(-109.54 -86.1)" style="fill:#595a5c"/><path d="M141.44,350.36a1.43,1.43,0,0,1-1.38-1.46l0-6.08a1.43,1.43,0,0,1,1.35-1.49l43.1-.33a1.43,1.43,0,0,1,1.38,1.46l.05,6.09a1.43,1.43,0,0,1-1.36,1.48Z" transform="translate(-109.54 -86.1)" style="fill:url(#b17b5e0d-7d27-4098-9a08-863071f83a59)"/><path d="M185.62,348.55a1.13,1.13,0,0,1-1.08,1.18l-43.1.34a1.14,1.14,0,0,1-1.1-1.17l-.05-6.08a1.14,1.14,0,0,1,1.08-1.19l43.11-.33a1.14,1.14,0,0,1,1.1,1.17Z" transform="translate(-109.54 -86.1)" style="fill:url(#b350f01a-9679-43f1-ac04-c74072d25f69)"/><ellipse cx="142.18" cy="345.88" rx="1" ry="1.08" transform="translate(-112.2 -84.99) rotate(-0.44)" style="fill:#595a5c"/><path d="M142.82,345a1.14,1.14,0,0,1,0,1.53,1,1,0,0,1-1.42,0,1.15,1.15,0,0,1,0-1.53A1,1,0,0,1,142.82,345Z" transform="translate(-109.54 -86.1)" style="fill:url(#ff8ebed9-4b65-4e04-adf2-6467a5ded1a0)"/><path d="M142.83,345.05a5.77,5.77,0,0,1-1.41,1.54,7.46,7.46,0,0,1,.64-.84A6.2,6.2,0,0,1,142.83,345.05Z" transform="translate(-109.54 -86.1)" style="fill:#d8d9d9"/><path d="M142.83,345.05a6.76,6.76,0,0,1-1.41,1.54,6.76,6.76,0,0,1,1.41-1.54Z" transform="translate(-109.54 -86.1)" style="fill:#595a5c"/><ellipse cx="183.82" cy="345.56" rx="1" ry="1.08" transform="translate(-112.2 -84.67) rotate(-0.44)" style="fill:#595a5c"/><path d="M184.46,344.72a1.14,1.14,0,0,1,0,1.53,1,1,0,0,1-1.42,0,1.15,1.15,0,0,1,0-1.53A1,1,0,0,1,184.46,344.72Z" transform="translate(-109.54 -86.1)" style="fill:url(#b21cac3a-8f20-482c-b256-269f66f78587)"/><path d="M184.47,344.73a6.2,6.2,0,0,1-1.41,1.54,7.46,7.46,0,0,1,.64-.84A6.2,6.2,0,0,1,184.47,344.73Z" transform="translate(-109.54 -86.1)" style="fill:#d8d9d9"/><path d="M184.47,344.73a6.76,6.76,0,0,1-1.41,1.54,6.76,6.76,0,0,1,1.41-1.54Z" transform="translate(-109.54 -86.1)" style="fill:#595a5c"/><path d="M342.29,350.5a1.46,1.46,0,0,1-1.37-1.53l.11-6.23a1.45,1.45,0,0,1,1.42-1.48l44.14.76a1.45,1.45,0,0,1,1.37,1.53l-.1,6.23a1.46,1.46,0,0,1-1.43,1.48Z" transform="translate(-109.54 -86.1)" style="fill:url(#b48acdb5-4b63-42c9-9444-197cc2d3c1bd)"/><path d="M387.57,349.77a1.16,1.16,0,0,1-1.13,1.19l-44.14-.76a1.16,1.16,0,0,1-1.1-1.22l.11-6.23a1.16,1.16,0,0,1,1.14-1.19l44.13.76a1.17,1.17,0,0,1,1.1,1.23Z" transform="translate(-109.54 -86.1)" style="fill:url(#e9377e00-5693-4cdb-a33b-2604f5a1e0c0)"/><ellipse cx="343.17" cy="345.93" rx="1.11" ry="1.03" transform="translate(-118.16 596.99) rotate(-89.01)" style="fill:#595a5c"/><path d="M343.84,345.09a1.16,1.16,0,0,1,0,1.56,1,1,0,0,1-1.46,0,1.18,1.18,0,0,1,0-1.57A1,1,0,0,1,343.84,345.09Z" transform="translate(-109.54 -86.1)" style="fill:url(#a0d572a3-997e-46f4-ab88-0ead1d322a79)"/><path d="M343.85,345.1a6.74,6.74,0,0,1-.68.84,6,6,0,0,1-.8.7,6,6,0,0,1,.68-.84A5.81,5.81,0,0,1,343.85,345.1Z" transform="translate(-109.54 -86.1)" style="fill:#d8d9d9"/><path d="M343.85,345.1a6.28,6.28,0,0,1-.68.83,7.57,7.57,0,0,1-.8.71,6.94,6.94,0,0,1,.69-.83A6.79,6.79,0,0,1,343.85,345.1Z" transform="translate(-109.54 -86.1)" style="fill:#595a5c"/><ellipse cx="385.81" cy="346.66" rx="1.11" ry="1.03" transform="matrix(0.02, -1, 1, 0.02, -76.99, 640.35)" style="fill:#595a5c"/><path d="M386.48,345.82a1.17,1.17,0,0,1,0,1.57,1,1,0,0,1-1.46,0,1.16,1.16,0,0,1,0-1.56A1,1,0,0,1,386.48,345.82Z" transform="translate(-109.54 -86.1)" style="fill:url(#ae85bd4d-429d-42e3-84e2-6a883a910423)"/><path d="M386.49,345.83a6.35,6.35,0,0,1-.67.84,5.54,5.54,0,0,1-.81.7,6.26,6.26,0,0,1,1.48-1.54Z" transform="translate(-109.54 -86.1)" style="fill:#d8d9d9"/><path d="M386.49,345.83a6.28,6.28,0,0,1-.68.83,6.4,6.4,0,0,1-.8.71,8,8,0,0,1,.69-.83A8.15,8.15,0,0,1,386.49,345.83Z" transform="translate(-109.54 -86.1)" style="fill:#595a5c"/><path d="M242.29,379.32a1.36,1.36,0,0,1-1.18-1.48l0-6.11a1.35,1.35,0,0,1,1.17-1.48l37.17.07a1.37,1.37,0,0,1,1.18,1.49l0,6.1a1.35,1.35,0,0,1-1.17,1.48Z" transform="translate(-109.54 -86.1)" style="fill:url(#ab5e6e3b-e747-4ce7-9d86-4bd18a2294b2)"/><path d="M280.39,377.91a1.07,1.07,0,0,1-.93,1.19L242.29,379a1.08,1.08,0,0,1-.94-1.18l0-6.11a1.08,1.08,0,0,1,.94-1.18l37.17.07a1.09,1.09,0,0,1,.94,1.19Z" transform="translate(-109.54 -86.1)" style="fill:url(#fe56c485-8493-48db-b831-f89fb1833db4)"/><ellipse cx="242.94" cy="374.82" rx="0.87" ry="1.08" transform="translate(-114.26 -83) rotate(-0.72)" style="fill:#595a5c"/><path d="M243.5,374a1.28,1.28,0,0,1,0,1.53.75.75,0,0,1-1.22,0,1.31,1.31,0,0,1,0-1.54A.75.75,0,0,1,243.5,374Z" transform="translate(-109.54 -86.1)" style="fill:url(#b217bf24-2cd7-49b2-b447-ad6031f1d133)"/><path d="M243.51,374a6,6,0,0,1-.56.83,5.33,5.33,0,0,1-.66.7,6.45,6.45,0,0,1,.55-.83A5,5,0,0,1,243.51,374Z" transform="translate(-109.54 -86.1)" style="fill:#d8d9d9"/><path d="M243.51,374a7.06,7.06,0,0,1-.57.82,5.43,5.43,0,0,1-.65.71,6.26,6.26,0,0,1,.56-.82A5.89,5.89,0,0,1,243.51,374Z" transform="translate(-109.54 -86.1)" style="fill:#595a5c"/><ellipse cx="278.85" cy="374.89" rx="0.87" ry="1.08" transform="translate(-114.26 -82.54) rotate(-0.72)" style="fill:#595a5c"/><path d="M279.41,374.06a1.29,1.29,0,0,1,0,1.53.75.75,0,0,1-1.22,0,1.29,1.29,0,0,1,0-1.54A.75.75,0,0,1,279.41,374.06Z" transform="translate(-109.54 -86.1)" style="fill:url(#a56f9e23-b619-4217-b2be-d2deafab5c52)"/><path d="M279.41,374.07a6.45,6.45,0,0,1-.55.83,5.79,5.79,0,0,1-.67.7,6,6,0,0,1,.56-.83A5.32,5.32,0,0,1,279.41,374.07Z" transform="translate(-109.54 -86.1)" style="fill:#d8d9d9"/><path d="M279.41,374.07a6.26,6.26,0,0,1-.56.82,7,7,0,0,1-.66.71,7.66,7.66,0,0,1,.57-.83A5.72,5.72,0,0,1,279.41,374.07Z" transform="translate(-109.54 -86.1)" style="fill:#595a5c"/><path d="M251.65,128.49h-2.1l-.36,1h-.85l1.79-5h1l1.79,5H252Zm-.23-.67-.82-2.32-.82,2.32Z" transform="translate(-109.54 -86.1)" style="fill:#414042"/><path d="M256.48,125.68a1.39,1.39,0,0,1,.58.57,1.92,1.92,0,0,1,.21.92v2.34h-.81V127.3a1.14,1.14,0,0,0-.27-.82,1.08,1.08,0,0,0-1.45,0,1.14,1.14,0,0,0-.27.82v2.21h-.82v-4h.82V126a1.32,1.32,0,0,1,.51-.38,1.67,1.67,0,0,1,.67-.14A1.73,1.73,0,0,1,256.48,125.68Z" transform="translate(-109.54 -86.1)" style="fill:#414042"/><path d="M261.15,125.68a1.39,1.39,0,0,1,.58.57,1.92,1.92,0,0,1,.21.92v2.34h-.81V127.3a1.14,1.14,0,0,0-.27-.82,1,1,0,0,0-.73-.28,1,1,0,0,0-.73.28,1.14,1.14,0,0,0-.27.82v2.21h-.82v-4h.82V126a1.43,1.43,0,0,1,.52-.38,1.66,1.66,0,0,1,.66-.14A1.8,1.8,0,0,1,261.15,125.68Z" transform="translate(-109.54 -86.1)" style="fill:#414042"/><path d="M266.57,125.55v4h-.82V129a1.25,1.25,0,0,1-.51.39,1.63,1.63,0,0,1-.66.14,1.79,1.79,0,0,1-.84-.19,1.41,1.41,0,0,1-.58-.58,1.87,1.87,0,0,1-.21-.92v-2.33h.81v2.21a1.18,1.18,0,0,0,.26.81,1.06,1.06,0,0,0,1.46,0,1.13,1.13,0,0,0,.27-.81v-2.21Z" transform="translate(-109.54 -86.1)" style="fill:#414042"/><path d="M268.47,124.19v5.32h-.82v-5.32Z" transform="translate(-109.54 -86.1)" style="fill:#414042"/><path d="M269.52,126.46a1.89,1.89,0,0,1,.68-.72,1.83,1.83,0,0,1,.95-.26,1.73,1.73,0,0,1,.81.19,1.59,1.59,0,0,1,.56.45v-.57h.83v4h-.83v-.59a1.57,1.57,0,0,1-.57.47,1.79,1.79,0,0,1-1.75-.08,1.78,1.78,0,0,1-.68-.73,2.31,2.31,0,0,1-.24-1.07A2.23,2.23,0,0,1,269.52,126.46Zm2.83.36a1.18,1.18,0,0,0-.44-.47,1.24,1.24,0,0,0-1.18,0,1.19,1.19,0,0,0-.44.45,1.59,1.59,0,0,0,0,1.43,1.12,1.12,0,0,0,.44.47,1.15,1.15,0,0,0,.59.17,1.21,1.21,0,0,0,.59-.16,1.18,1.18,0,0,0,.44-.47,1.46,1.46,0,0,0,.17-.71A1.43,1.43,0,0,0,272.35,126.82Z" transform="translate(-109.54 -86.1)" style="fill:#414042"/><path d="M275.72,125.65a1.46,1.46,0,0,1,.71-.17v.85h-.21a1,1,0,0,0-.73.25,1.18,1.18,0,0,0-.24.85v2.08h-.82v-4h.82v.57A1.41,1.41,0,0,1,275.72,125.65Z" transform="translate(-109.54 -86.1)" style="fill:#414042"/><path d="M248.9,196.83a1.43,1.43,0,0,1-.61.58,2.23,2.23,0,0,1-1.07.23h-1v2.14h-.86V194.5h1.82a2.28,2.28,0,0,1,1,.21,1.44,1.44,0,0,1,.63.56,1.62,1.62,0,0,1,0,1.56Zm-.94-.12a.84.84,0,0,0,.24-.64c0-.58-.33-.87-1-.87h-1v1.73h1A1.06,1.06,0,0,0,248,196.71Z" transform="translate(-109.54 -86.1)" style="fill:#414042"/><path d="M250.79,194.5v5.28h-.87V194.5Z" transform="translate(-109.54 -86.1)" style="fill:#414042"/><path d="M255.43,196.83a1.43,1.43,0,0,1-.61.58,2.23,2.23,0,0,1-1.07.23h-1v2.14h-.86V194.5h1.82a2.28,2.28,0,0,1,1,.21,1.44,1.44,0,0,1,.63.56,1.62,1.62,0,0,1,0,1.56Zm-.94-.12a.84.84,0,0,0,.24-.64c0-.58-.33-.87-1-.87h-1v1.73h1A1.06,1.06,0,0,0,254.49,196.71Z" transform="translate(-109.54 -86.1)" style="fill:#414042"/><path d="M257.32,195.2v1.55h1.82v.7h-1.82v1.62h2.05v.71h-2.92v-5.29h2.92v.71Z" transform="translate(-109.54 -86.1)" style="fill:#414042"/><path d="M265.15,199.78l-1.21-2.11h-.66v2.11h-.87V194.5h1.82a2.28,2.28,0,0,1,1,.21,1.43,1.43,0,0,1,.64.57,1.53,1.53,0,0,1,.2.8,1.59,1.59,0,0,1-.3.94,1.5,1.5,0,0,1-.92.57l1.31,2.19Zm-1.87-2.8h1a1,1,0,0,0,.74-.25.89.89,0,0,0,.25-.65.85.85,0,0,0-.25-.64,1,1,0,0,0-.74-.24h-1Z" transform="translate(-109.54 -86.1)" style="fill:#414042"/><path d="M270.4,198.7h-2.21l-.38,1.08h-.91l1.9-5.29h1l1.89,5.29h-.91Zm-.24-.71-.86-2.45-.87,2.45Z" transform="translate(-109.54 -86.1)" style="fill:#414042"/><path d="M278.08,194.5v5.28h-.87v-3.62l-1.61,3.62H275l-1.62-3.62v3.62h-.87V194.5h.94l1.85,4.14,1.85-4.14Z" transform="translate(-109.54 -86.1)" style="fill:#414042"/><path d="M280,199.65a1.69,1.69,0,0,1-.67-.53,1.35,1.35,0,0,1-.24-.8H280a.81.81,0,0,0,.27.56.93.93,0,0,0,.67.22,1.06,1.06,0,0,0,.7-.21.7.7,0,0,0,.25-.56.57.57,0,0,0-.16-.43.92.92,0,0,0-.38-.26,5.9,5.9,0,0,0-.65-.2,5.47,5.47,0,0,1-.84-.28,1.43,1.43,0,0,1-.55-.43,1.31,1.31,0,0,1-.23-.8,1.39,1.39,0,0,1,.23-.79,1.46,1.46,0,0,1,.64-.53,2.37,2.37,0,0,1,.95-.18,2,2,0,0,1,1.26.38,1.4,1.4,0,0,1,.54,1.06h-1a.71.71,0,0,0-.28-.5,1,1,0,0,0-.66-.2.93.93,0,0,0-.61.19.67.67,0,0,0-.23.54.57.57,0,0,0,.14.4,1,1,0,0,0,.38.25,5.75,5.75,0,0,0,.62.2,5.34,5.34,0,0,1,.86.29,1.33,1.33,0,0,1,.56.44,1.25,1.25,0,0,1,.23.8,1.45,1.45,0,0,1-.21.76,1.68,1.68,0,0,1-.63.58,2.17,2.17,0,0,1-1,.21A2.45,2.45,0,0,1,280,199.65Z" transform="translate(-109.54 -86.1)" style="fill:#414042"/><path d="M246.46,254.88a1.15,1.15,0,0,1,.25.72,1.1,1.1,0,0,1-.18.62,1.22,1.22,0,0,1-.51.44,1.8,1.8,0,0,1-.79.16h-1.8v-4.51h1.72a1.92,1.92,0,0,1,.79.15,1.09,1.09,0,0,1,.67,1,1,1,0,0,1-.21.65,1.19,1.19,0,0,1-.56.38A1,1,0,0,1,246.46,254.88Zm-2.29-.68h.91a.9.9,0,0,0,.57-.16.57.57,0,0,0,.2-.48.58.58,0,0,0-.2-.48.9.9,0,0,0-.57-.17h-.91Zm1.59,1.83a.63.63,0,0,0,.21-.5.64.64,0,0,0-.23-.53.88.88,0,0,0-.6-.19h-1v1.4h1A.9.9,0,0,0,245.76,256Z" transform="translate(-109.54 -86.1)" style="fill:#414042"/><path d="M248.26,256.22h1.52v.6h-2.26v-4.51h.74Z" transform="translate(-109.54 -86.1)" style="fill:#414042"/><path d="M251.14,252.31v4.51h-.74v-4.51Z" transform="translate(-109.54 -86.1)" style="fill:#414042"/><path d="M255.82,256.82h-.74l-2.23-3.37v3.37h-.74V252.3h.74l2.23,3.36V252.3h.74Z" transform="translate(-109.54 -86.1)" style="fill:#414042"/><path d="M259.54,252.58a2,2,0,0,1,.83.79,2.39,2.39,0,0,1,.3,1.21,2.26,2.26,0,0,1-.3,1.19,1.9,1.9,0,0,1-.83.78,2.86,2.86,0,0,1-1.27.27H256.8v-4.51h1.47A2.86,2.86,0,0,1,259.54,252.58Zm-.05,3.21a1.66,1.66,0,0,0,.42-1.21,1.71,1.71,0,0,0-.42-1.23,1.63,1.63,0,0,0-1.22-.44h-.73v3.3h.73A1.66,1.66,0,0,0,259.49,255.79Z" transform="translate(-109.54 -86.1)" style="fill:#414042"/><path d="M262.07,256.71a1.37,1.37,0,0,1-.57-.46,1.12,1.12,0,0,1-.21-.68h.79a.73.73,0,0,0,.23.48.81.81,0,0,0,.58.19.93.93,0,0,0,.6-.18.63.63,0,0,0,.21-.48.51.51,0,0,0-.13-.37.83.83,0,0,0-.33-.22c-.14-.05-.32-.11-.55-.17a5,5,0,0,1-.72-.24,1.19,1.19,0,0,1-.47-.37,1.1,1.1,0,0,1-.2-.68,1.21,1.21,0,0,1,.2-.68,1.34,1.34,0,0,1,.54-.45,2.1,2.1,0,0,1,.82-.15,1.74,1.74,0,0,1,1.07.32,1.22,1.22,0,0,1,.47.9h-.82a.61.61,0,0,0-.24-.42.89.89,0,0,0-.56-.17.79.79,0,0,0-.52.16.55.55,0,0,0-.2.47.49.49,0,0,0,.12.34.93.93,0,0,0,.33.21,4.83,4.83,0,0,0,.53.17,5.68,5.68,0,0,1,.73.24,1.27,1.27,0,0,1,.48.38,1.13,1.13,0,0,1,.2.69,1.17,1.17,0,0,1-.19.65,1.29,1.29,0,0,1-.54.49,1.78,1.78,0,0,1-.83.18A2.14,2.14,0,0,1,262.07,256.71Z" transform="translate(-109.54 -86.1)" style="fill:#414042"/><path d="M269.36,256.82l-1-1.81h-.57v1.81H267v-4.51h1.56a1.94,1.94,0,0,1,.88.18,1.27,1.27,0,0,1,.54.48,1.34,1.34,0,0,1,.18.69,1.36,1.36,0,0,1-.26.8,1.3,1.3,0,0,1-.79.49l1.12,1.87Zm-1.61-2.4h.82a.86.86,0,0,0,.63-.21.72.72,0,0,0,.21-.55.71.71,0,0,0-.21-.55.9.9,0,0,0-.63-.2h-.82Z" transform="translate(-109.54 -86.1)" style="fill:#414042"/><path d="M273.84,255.9H272l-.33.92h-.77l1.62-4.52h.86l1.61,4.52h-.78Zm-.21-.61-.73-2.1-.74,2.1Z" transform="translate(-109.54 -86.1)" style="fill:#414042"/><path d="M280.4,252.31v4.51h-.74v-3.09l-1.38,3.09h-.51l-1.39-3.09v3.09h-.74v-4.51h.8l1.59,3.53,1.58-3.53Z" transform="translate(-109.54 -86.1)" style="fill:#414042"/><path d="M282,256.71a1.37,1.37,0,0,1-.57-.46,1.12,1.12,0,0,1-.21-.68h.79a.7.7,0,0,0,.24.48.77.77,0,0,0,.57.19.91.91,0,0,0,.6-.18.63.63,0,0,0,.21-.48.51.51,0,0,0-.13-.37.83.83,0,0,0-.33-.22,5.44,5.44,0,0,0-.55-.17,5,5,0,0,1-.72-.24,1.19,1.19,0,0,1-.47-.37,1.1,1.1,0,0,1-.19-.68,1.2,1.2,0,0,1,.19-.68,1.3,1.3,0,0,1,.55-.45,2,2,0,0,1,.81-.15,1.74,1.74,0,0,1,1.07.32,1.22,1.22,0,0,1,.47.9h-.82a.58.58,0,0,0-.24-.42.89.89,0,0,0-.56-.17.79.79,0,0,0-.52.16.58.58,0,0,0-.2.47.45.45,0,0,0,.13.34.81.81,0,0,0,.32.21,4.83,4.83,0,0,0,.53.17,5.68,5.68,0,0,1,.73.24,1.27,1.27,0,0,1,.48.38,1.13,1.13,0,0,1,.2.69,1.17,1.17,0,0,1-.19.65,1.29,1.29,0,0,1-.54.49,1.78,1.78,0,0,1-.83.18A2.14,2.14,0,0,1,282,256.71Z" transform="translate(-109.54 -86.1)" style="fill:#414042"/><path d="M153.33,348.18l-1.78-2.05v2.05h-.75V343.6h.75v2.09l1.78-2.09h.95l-2,2.29,2,2.29Z" transform="translate(-109.54 -86.1)" style="fill:#414042"/><path d="M155.73,343.6v4.58H155V343.6Z" transform="translate(-109.54 -86.1)" style="fill:#414042"/><path d="M157.47,347.58H159v.6h-2.3V343.6h.75Z" transform="translate(-109.54 -86.1)" style="fill:#414042"/><path d="M160.4,347.58H162v.6h-2.3V343.6h.75Z" transform="translate(-109.54 -86.1)" style="fill:#414042"/><path d="M165.05,347.58h1.55v.6h-2.3V343.6h.75Z" transform="translate(-109.54 -86.1)" style="fill:#414042"/><path d="M168,343.6v4.58h-.75V343.6Z" transform="translate(-109.54 -86.1)" style="fill:#414042"/><path d="M172.74,348.18H172l-2.26-3.42v3.42H169v-4.59h.75L172,347v-3.42h.76Z" transform="translate(-109.54 -86.1)" style="fill:#414042"/><path d="M174.48,344.2v1.35h1.58v.61h-1.58v1.41h1.78v.61h-2.53v-4.59h2.53v.61Z" transform="translate(-109.54 -86.1)" style="fill:#414042"/><path d="M346.23,345.25a2.25,2.25,0,0,1,.87-.86,2.49,2.49,0,0,1,1.2-.31,2.52,2.52,0,0,1,1.34.37,2.16,2.16,0,0,1,.85,1.05h-.93a1.21,1.21,0,0,0-.51-.56,1.49,1.49,0,0,0-.75-.18,1.65,1.65,0,0,0-.83.21,1.5,1.5,0,0,0-.57.6,1.91,1.91,0,0,0-.2.91,2,2,0,0,0,.2.92,1.5,1.5,0,0,0,.57.6,1.65,1.65,0,0,0,.83.21,1.49,1.49,0,0,0,.75-.18,1.24,1.24,0,0,0,.51-.55h.93a2.13,2.13,0,0,1-.85,1,2.63,2.63,0,0,1-2.55.06,2.37,2.37,0,0,1-1.18-2.1A2.3,2.3,0,0,1,346.23,345.25Z" transform="translate(-109.54 -86.1)" style="fill:#414042"/><path d="M355.14,344.14v4.7h-.77v-2h-2.21v2h-.77v-4.7h.77v2h2.21v-2Z" transform="translate(-109.54 -86.1)" style="fill:#414042"/><path d="M357.09,348.58a2.18,2.18,0,0,1-.87-.86,2.34,2.34,0,0,1-.32-1.24,2.3,2.3,0,0,1,.32-1.23,2.25,2.25,0,0,1,.87-.86,2.52,2.52,0,0,1,2.42,0,2.25,2.25,0,0,1,.87.86,2.39,2.39,0,0,1,.31,1.23,2.43,2.43,0,0,1-.31,1.24,2.18,2.18,0,0,1-.87.86,2.52,2.52,0,0,1-2.42,0Zm2-.57a1.53,1.53,0,0,0,.57-.61,2.08,2.08,0,0,0,.2-.92,2,2,0,0,0-.2-.91,1.5,1.5,0,0,0-.57-.6,1.77,1.77,0,0,0-1.67,0,1.5,1.5,0,0,0-.57.6,1.91,1.91,0,0,0-.2.91,2,2,0,0,0,.2.92,1.53,1.53,0,0,0,.57.61,1.77,1.77,0,0,0,1.67,0Z" transform="translate(-109.54 -86.1)" style="fill:#414042"/><path d="M364,348.84l-1.82-2.1v2.1h-.77v-4.7h.77v2.15l1.83-2.15h1l-2,2.36,2.08,2.34Z" transform="translate(-109.54 -86.1)" style="fill:#414042"/><path d="M366.5,344.77v1.37h1.62v.63H366.5v1.44h1.83v.63h-2.6v-4.7h2.6v.63Z" transform="translate(-109.54 -86.1)" style="fill:#414042"/><path d="M371.8,348.22h1.59v.62H371v-4.7h.77Z" transform="translate(-109.54 -86.1)" style="fill:#414042"/><path d="M374.8,344.14v4.7H374v-4.7Z" transform="translate(-109.54 -86.1)" style="fill:#414042"/><path d="M379.67,348.84h-.77l-2.32-3.51v3.51h-.77v-4.7h.77l2.32,3.5v-3.5h.77Z" transform="translate(-109.54 -86.1)" style="fill:#414042"/><path d="M381.46,344.77v1.37h1.62v.63h-1.62v1.44h1.82v.63h-2.59v-4.7h2.59v.63Z" transform="translate(-109.54 -86.1)" style="fill:#414042"/><path d="M247.89,374.7a1.3,1.3,0,0,1-.52.52,2.14,2.14,0,0,1-.94.21h-.83l0,1.87-.75,0-.09-4.61,1.59,0a2,2,0,0,1,.91.17,1.26,1.26,0,0,1,.56.48,1.38,1.38,0,0,1,.19.69A1.53,1.53,0,0,1,247.89,374.7Zm-.83-.1a.67.67,0,0,0,.2-.55c0-.51-.29-.75-.86-.74h-.84l0,1.51.83,0A.87.87,0,0,0,247.06,374.6Z" transform="translate(-109.54 -86.1)" style="fill:#414042"/><path d="M249.49,372.63l.09,4.61h-.76l-.08-4.6Z" transform="translate(-109.54 -86.1)" style="fill:#414042"/><path d="M253.58,374.59a1.24,1.24,0,0,1-.52.52,1.83,1.83,0,0,1-.93.21l-.84,0,0,1.87h-.76l-.08-4.6,1.59,0a2.07,2.07,0,0,1,.9.16,1.28,1.28,0,0,1,.56.49,1.32,1.32,0,0,1,.19.69A1.26,1.26,0,0,1,253.58,374.59Zm-.83-.09a.73.73,0,0,0,.21-.56c0-.5-.3-.75-.87-.74l-.84,0,0,1.5h.84A.93.93,0,0,0,252.75,374.5Z" transform="translate(-109.54 -86.1)" style="fill:#414042"/><path d="M255.2,373.14l0,1.35,1.59,0v.62l-1.59,0,0,1.41,1.79,0v.61l-2.55,0-.08-4.61,2.54-.05,0,.62Z" transform="translate(-109.54 -86.1)" style="fill:#414042"/><path d="M262.1,377,261,375.19h-.58l0,1.84-.75,0-.08-4.61,1.59,0a2.07,2.07,0,0,1,.9.17,1.28,1.28,0,0,1,.56.49,1.32,1.32,0,0,1,.19.69,1.28,1.28,0,0,1-.25.82,1.31,1.31,0,0,1-.79.52L263,377Zm-1.68-2.41.84,0a.86.86,0,0,0,.63-.22.81.81,0,0,0,.21-.58.77.77,0,0,0-.22-.55.92.92,0,0,0-.65-.19h-.84Z" transform="translate(-109.54 -86.1)" style="fill:#414042"/><path d="M266.66,376l-1.93,0-.31,1-.79,0,1.56-4.65h.88l1.73,4.58H267Zm-.23-.61-.78-2.13-.72,2.15Z" transform="translate(-109.54 -86.1)" style="fill:#414042"/><path d="M273.29,372.2l.08,4.61h-.76l-.05-3.15-1.35,3.18h-.52l-1.47-3.13,0,3.15-.75,0-.09-4.61h.82l1.68,3.58,1.55-3.64Z" transform="translate(-109.54 -86.1)" style="fill:#414042"/><path d="M275,376.66a1.34,1.34,0,0,1-.59-.45,1.14,1.14,0,0,1-.22-.69H275a.72.72,0,0,0,.24.48.79.79,0,0,0,.59.18.9.9,0,0,0,.61-.2.64.64,0,0,0,.21-.49.52.52,0,0,0-.15-.37.8.8,0,0,0-.34-.22,3.68,3.68,0,0,0-.56-.16,6.07,6.07,0,0,1-.74-.23,1.18,1.18,0,0,1-.48-.38,1.06,1.06,0,0,1-.22-.68,1.25,1.25,0,0,1,.19-.7,1.27,1.27,0,0,1,.55-.47,1.9,1.9,0,0,1,.82-.17,1.78,1.78,0,0,1,1.11.31,1.24,1.24,0,0,1,.49.91l-.84,0a.61.61,0,0,0-.24-.43.91.91,0,0,0-.58-.17.81.81,0,0,0-.53.18.57.57,0,0,0-.2.48.44.44,0,0,0,.14.34.85.85,0,0,0,.33.21,4.73,4.73,0,0,0,.55.17,5.24,5.24,0,0,1,.75.23,1.3,1.3,0,0,1,.49.38,1.17,1.17,0,0,1,.22.7,1.38,1.38,0,0,1-.18.67,1.4,1.4,0,0,1-.54.51,1.87,1.87,0,0,1-.85.2A1.91,1.91,0,0,1,275,376.66Z" transform="translate(-109.54 -86.1)" style="fill:#414042"/></g></g></svg>