<svg xmlns="http://www.w3.org/2000/svg" xmlns:xlink="http://www.w3.org/1999/xlink" viewBox="0 0 28.34 28.34"><defs><linearGradient id="aedcc35e-b636-44a0-a856-23672129aec6" x1="255.96" y1="270.34" x2="255.96" y2="242.01" gradientTransform="translate(16.67 -15.64) rotate(3.62)" gradientUnits="userSpaceOnUse"><stop offset="0.03" stop-color="#b4b4b4"/><stop offset="0.16" stop-color="#676767"/><stop offset="0.18" stop-color="#6f6f6f"/><stop offset="0.23" stop-color="#848484"/><stop offset="0.28" stop-color="#a6a6a6"/><stop offset="0.3" stop-color="#b4b4b4"/><stop offset="0.33" stop-color="#b7b7b7"/><stop offset="0.36" stop-color="#c2c2c2"/><stop offset="0.39" stop-color="#d3d3d3"/><stop offset="0.41" stop-color="#ebebeb"/><stop offset="0.42" stop-color="#f3f3f3"/><stop offset="0.45" stop-color="#dedede"/><stop offset="0.53" stop-color="#acacac"/><stop offset="0.6" stop-color="#8d8d8d"/><stop offset="0.63" stop-color="#818181"/><stop offset="0.8" stop-color="#4e4e4e"/><stop offset="0.82" stop-color="#535353"/><stop offset="0.85" stop-color="#606060"/><stop offset="0.88" stop-color="#767676"/><stop offset="0.91" stop-color="#959595"/><stop offset="0.94" stop-color="#bdbdbc"/><stop offset="0.96" stop-color="#e6e6e5"/></linearGradient><linearGradient id="b289e58d-4c47-4ac0-a298-a8dfda42124b" x1="242.79" y1="256.18" x2="269.14" y2="256.18" xlink:href="#aedcc35e-b636-44a0-a856-23672129aec6"/><linearGradient id="a54075bb-9cf7-4d4a-bd61-8c0f1738e7fd" x1="-3.23" y1="27.15" x2="24.93" y2="6.14" gradientUnits="userSpaceOnUse"><stop offset="0.23" stop-color="#069547"/><stop offset="0.31" stop-color="#129946"/><stop offset="0.43" stop-color="#33a442"/><stop offset="0.61" stop-color="#67b63c"/><stop offset="0.81" stop-color="#afcf33"/><stop offset="1" stop-color="#f7e82b"/></linearGradient><linearGradient id="aa660f64-5bf1-4f83-b045-3ee1e82df44d" x1="255.96" y1="239.61" x2="255.96" y2="259.39" gradientUnits="userSpaceOnUse"><stop offset="0.23" stop-color="#fff" stop-opacity="0.96"/><stop offset="0.83" stop-color="#fff" stop-opacity="0"/></linearGradient></defs><g style="isolation:isolate"><g id="f34f756e-d9bd-410c-bb63-ef321aaa3a0a" data-name="Layer 1"><g id="ba5330c0-b329-4102-ac01-72f9ed43af39" data-name="blindramsopen"><circle cx="255.96" cy="256.18" r="14.17" transform="translate(-257.45 -225.35) rotate(-3.62)" style="fill:url(#aedcc35e-b636-44a0-a856-23672129aec6)"/><circle cx="255.96" cy="256.18" r="13.17" transform="translate(-257.45 -225.35) rotate(-3.62)" style="opacity:0.8;mix-blend-mode:multiply;fill:url(#b289e58d-4c47-4ac0-a298-a8dfda42124b)"/><circle cx="14.17" cy="14.17" r="12.68" style="fill:url(#a54075bb-9cf7-4d4a-bd61-8c0f1738e7fd)"/><path d="M269.14,256.18A13.37,13.37,0,0,1,256,269.54a13.43,13.43,0,0,1-9.55-3.81,13.39,13.39,0,0,1,0-19.11,13.39,13.39,0,0,1,18.91.2A13.24,13.24,0,0,1,269.14,256.18Zm0,0a13.21,13.21,0,0,0-3.9-9.28,13,13,0,0,0-18.35.2,13,13,0,0,0,9.07,22,13,13,0,0,0,9.28-3.7A13.21,13.21,0,0,0,269.14,256.18Z" transform="translate(-241.8 -242.01)" style="fill:#fff"/><path d="M267.55,256.18c0,6.39-5.19,1.88-11.59,1.88s-11.58,4.51-11.58-1.88a11.59,11.59,0,1,1,23.17,0Z" transform="translate(-241.8 -242.01)" style="fill:url(#aa660f64-5bf1-4f83-b045-3ee1e82df44d)"/></g></g></g></svg>